{
    "accessors": [
        {
            "bufferView": 0,
            "byteOffset": 0,
            "componentType": 5126,
            "count": 3437,
            "max": [
                0.07828888297080994,
                0.02486581914126873,
                0.0855005756020546
            ],
            "min": [
                -0.0869537889957428,
                -0.02513418160378933,
                -0.06570117175579071
            ],
            "name": "accessor_buffer_CUpath4_POSITION_0",
            "type": "VEC3"
        },
        {
            "bufferView": 1,
            "byteOffset": 0,
            "componentType": 5126,
            "count": 3437,
            "max": [
                1.0,
                1.0,
                1.0
            ],
            "min": [
                -1.0,
                -1.0,
                -1.0
            ],
            "name": "accessor_buffer_CUpath4_NORMAL_0",
            "type": "VEC3"
        },
        {
            "bufferView": 2,
            "byteOffset": 0,
            "componentType": 5123,
            "count": 4476,
            "max": [
                3436
            ],
            "min": [
                0
            ],
            "name": "accessor_buffer_CUpath4_0",
            "type": "SCALAR"
        }
    ],
    "asset": {
        "copyright": "",
        "generator": "blendergltf v1.2.0",
        "version": "2.0"
    },
    "bufferViews": [
        {
            "buffer": 0,
            "byteLength": 41244,
            "byteOffset": 0,
            "byteStride": 12,
            "name": "bufferView_buffer_CUpath4_POSITION_0",
            "target": 34962
        },
        {
            "buffer": 0,
            "byteLength": 41244,
            "byteOffset": 41244,
            "byteStride": 12,
            "name": "bufferView_buffer_CUpath4_NORMAL_0",
            "target": 34962
        },
        {
            "buffer": 0,
            "byteLength": 8956,
            "byteOffset": 82488,
            "name": "bufferView_buffer_CUpath4_0",
            "target": 34963
        }
    ],
    "buffers": [
        {
            "byteLength": 91444,
            "name": "buffer_a",
            "uri": "buffer_a.bin"
        }
    ],
    "cameras": [
        {
            "name": "Camera",
            "perspective": {
                "aspectRatio": 1.703595982340029,
                "yfov": 0.5033799409866333,
                "zfar": 100.0,
                "znear": 0.10000000149011612
            },
            "type": "perspective"
        }
    ],
    "materials": [
        {
            "alphaMode": "OPAQUE",
            "doubleSided": false,
            "emissiveFactor": [
                0.0,
                0.0,
                0.0
            ],
            "name": "SVGMat.001",
            "pbrMetallicRoughness": {
                "baseColorFactor": [
                    0.0,
                    1.0,
                    1.0,
                    1.0
                ],
                "metallicFactor": 0.0,
                "roughnessFactor": 1.0
            }
        }
    ],
    "meshes": [
        {
            "name": "CUpath4",
            "primitives": [
                {
                    "attributes": {
                        "NORMAL": 1,
                        "POSITION": 0
                    },
                    "indices": 2,
                    "material": 0,
                    "mode": 4
                }
            ]
        }
    ],
    "nodes": [
        {
            "camera": 0,
            "name": "Camera",
            "rotation": [
                -0.09062843769788742,
                -0.8937962651252747,
                -0.2099730223417282,
                0.38578000664711
            ],
            "scale": [
                1.0,
                1.0,
                1.0
            ],
            "translation": [
                -7.481131553649902,
                5.34366512298584,
                -6.5076398849487305
            ]
        },
        {
            "mesh": 0,
            "name": "Curve",
            "rotation": [
                -0.001452803728170693,
                -0.7117852568626404,
                -0.7023941278457642,
                0.0014722277410328388
            ],
            "scale": [
                10.0,
                10.0,
                10.0
            ],
            "translation": [
                0.0,
                0.0,
                0.0
            ]
        },
        {
            "name": "Lamp",
            "rotation": [
                -0.34203386306762695,
                -0.5232755541801453,
                -0.2841663062572479,
                0.7269423007965088
            ],
            "scale": [
                1.0,
                1.0,
                0.9999999403953552
            ],
            "translation": [
                -4.076245307922363,
                5.903861999511719,
                1.0054539442062378
            ]
        }
    ],
    "scene": 0,
    "scenes": [
        {
            "extras": {
                "active_camera": 0,
                "background_color": [
                    0.05087608844041824,
                    0.05087608844041824,
                    0.05087608844041824
                ],
                "frames_per_second": 24
            },
            "name": "Scene",
            "nodes": [
                1,
                2,
                0
            ]
        }
    ]
}
