<?xml version="1.0" encoding="UTF-8" standalone="no"?>
<svg
   xmlns:dc="http://purl.org/dc/elements/1.1/"
   xmlns:cc="http://creativecommons.org/ns#"
   xmlns:rdf="http://www.w3.org/1999/02/22-rdf-syntax-ns#"
   xmlns:svg="http://www.w3.org/2000/svg"
   xmlns="http://www.w3.org/2000/svg"
   xmlns:sodipodi="http://sodipodi.sourceforge.net/DTD/sodipodi-0.dtd"
   xmlns:inkscape="http://www.inkscape.org/namespaces/inkscape"
   width="1000px"
   height="1000px"
   viewBox="0 0 1000 1000"
   id="svg2"
   version="1.1"
   inkscape:version="0.91 r13725"
   sodipodi:docname="template.svg">
  <metadata
     id="metadata10">
    <rdf:RDF>
      <cc:Work
         rdf:about="">
        <dc:format>image/svg+xml</dc:format>
        <dc:type
           rdf:resource="http://purl.org/dc/dcmitype/StillImage" />
      </cc:Work>
    </rdf:RDF>
  </metadata>
  <defs
     id="defs8" />
  <sodipodi:namedview
     pagecolor="#ffffff"
     bordercolor="#666666"
     borderopacity="1"
     objecttolerance="10"
     gridtolerance="10"
     guidetolerance="10"
     inkscape:pageopacity="0"
     inkscape:pageshadow="2"
     inkscape:window-width="640"
     inkscape:window-height="480"
     id="namedview6"
     showgrid="false"
     inkscape:zoom="0.236"
     inkscape:cx="500"
     inkscape:cy="500"
     inkscape:window-x="0"
     inkscape:window-y="0"
     inkscape:window-maximized="0"
     inkscape:current-layer="svg2" />
  <path
     d="m 241.86064,495.61191 c 58.0889,-58.292 60.5488,-73.0986 12.1396,-73.0986 -58.8799,0 -41.7646,-89.709 27.5566,-144.42899 88.0156,-69.4766 341.448,-71.8242 425.02,-3.9375 51.1689,41.5674 58.2256,70.16209 65.7471,266.43899 l 8.42773,219.87497 -246.748,0 c -211.602,0 -253.439,-6.71481 -293.726,-47.14357 -60.6357,-60.8555 -59.9443,-155.956 1.58301,-217.706 z m 212.4616,172.2758 c -57.623,-1.47949 -66.7725,-11.7266 -66.7725,-74.8105 0,-41.209 13.2432,-73.9385 30.3516,-75.0225 19.2998,-1.22461 20.6377,-5.95117 3.67773,-12.9834 -14.6699,-6.08301 -55.6436,-0.006 -91.0527,13.5039 -84.0742,32.0771 -90.1494,138.776 -9.74805,171.207 67.4609,27.2109 90.1514,27.3252 151.754,0.75977 43.0332,-18.5566 40.959,-21.1367 -18.21,-22.6543 z m 248.877,-118.8858 c 0,-221.992 -27.6875,-257.42299 -202.532,-259.15699 -102.004,-1.01074 -146.316,9.93848 -178.974,44.23049 -42.0566,44.1592 -41.1416,45.0605 29.4355,28.9814 181.117,-41.26169 197.541,-41.51459 228.953,-3.53418 39.1348,47.3223 2.01465,103.305 -78.9609,119.125 -34.8145,6.80176 -25.0215,11.4609 28.6777,13.6465 76.3096,3.10547 80.4805,7.61816 64.9746,70.3252 -9.1123,36.8535 -27.6621,70.9893 -41.2256,75.8564 -27.0078,9.69141 70.4863,70.2012 119.301,74.043 21.5439,1.69531 30.3506,-45.7617 30.3506,-163.517 z m -182.275,19.987 c 8.50586,-13.8115 -1.2373,-17.8965 -22.8477,-9.57617 -42.0645,16.1992 -49.7617,33.6641 -14.8359,33.6641 12.5684,0 29.5225,-10.8398 37.6836,-24.0879 z"
     id="path4"
     inkscape:connector-curvature="0"
     style="fill:#00ffff" />
</svg>
