<?xml version="1.0" encoding="UTF-8" standalone="no"?>

<svg
   xmlns:svg="http://www.w3.org/2000/svg"
   xmlns="http://www.w3.org/2000/svg"
   width="640"
   height="346"
   viewBox="0 0 640 346"
>
  <path
     id="letters"
     fill="#000000"
     d="m 290.15467,345.00314 c -0.99838,-0.61637 -1.69965,-2.23572 -1.69965,-3.92482 0,-2.50765 0.35204,-2.8755 2.75182,-2.8755 1.5135,0 3.00684,-0.25593 3.31854,-0.56873 0.31171,-0.3128 -1.14514,-4.69641 -3.23743,-9.74136 -2.09229,-5.04495 -3.80416,-9.63645 -3.80416,-10.20334 0,-0.62947 1.9525,-0.91602 5.01577,-0.7361 4.94555,0.29048 5.03101,0.34919 6.1032,4.19319 1.15832,4.15281 1.83946,3.86929 2.92681,-1.21831 0.6524,-3.05249 0.85066,-3.1676 5.45598,-3.1676 2.62843,0 4.77897,0.41075 4.77897,0.9128 0,1.98567 -8.87091,24.97605 -10.12123,26.23077 -1.72468,1.73076 -9.29262,2.4547 -11.48862,1.099 z m 8.59567,-2.67299 c 1.58402,-1.06141 2.89916,-3.88879 6.66531,-14.32958 3.3272,-9.22389 3.35387,-9.41498 1.27187,-9.11243 -1.65647,0.24074 -2.46706,1.49296 -3.66669,5.66456 -2.14643,7.46397 -4.05584,7.47746 -6.29846,0.0446 -1.50399,-4.98488 -2.11995,-5.88738 -4.01815,-5.88738 l -2.24187,0 3.36686,8.01125 c 4.23089,10.06712 4.30363,12.27085 0.45319,13.72934 -1.60253,0.60702 -2.91369,1.44611 -2.91369,1.86464 0,0.96151 5.95103,0.97365 7.38163,0.015 z m 87.79878,2.99347 c -2.59979,-0.93244 -3.88492,-3.50796 -3.88492,-7.78616 0,-3.13581 -0.48911,-4.49795 -1.94246,-5.40872 -1.37759,-0.86334 -1.94245,-2.2729 -1.94245,-4.8472 0,-2.63236 0.53388,-3.91655 1.94245,-4.67309 1.48123,-0.79549 1.94246,-2.04074 1.94246,-5.24379 0,-5.34567 2.13059,-7.42663 7.60356,-7.42663 l 4.05119,0 0,3.79431 c 0,2.32915 -0.51815,3.99385 -1.34185,4.31105 -1.11711,0.43021 -2.42642,4.97691 -2.57754,8.95097 -0.14919,3.92462 1.44684,10.23381 2.5889,10.23381 0.92947,0 1.33049,1.32214 1.33049,4.38592 0,4.31423 -0.0515,4.38465 -3.15649,4.30896 -1.73608,-0.0422 -3.81208,-0.31207 -4.61334,-0.59943 z m 5.82737,-3.22222 c 0,-0.53604 -0.8741,-1.85182 -1.94246,-2.92394 -1.08301,-1.08684 -1.94245,-3.24882 -1.94245,-4.88646 0,-1.61544 -0.54214,-3.80841 -1.20481,-4.87324 -0.959,-1.54098 -0.959,-2.33116 0,-3.87214 0.66267,-1.06485 1.20481,-3.00262 1.20481,-4.3062 0,-3.37712 0.96404,-5.45351 2.53199,-5.45351 0.74416,0 1.35292,-0.87718 1.35292,-1.9493 0,-1.29952 -0.64742,-1.94929 -1.94246,-1.94929 -3.20301,0 -5.82737,3.45766 -5.82737,7.67785 0,2.1703 -0.62013,4.2958 -1.45684,4.99258 -1.82116,1.51677 -1.89419,4.49627 -0.12675,5.17684 0.82574,0.31801 1.50317,2.60868 1.78697,6.04187 0.2698,3.26506 1.01784,5.88603 1.82649,6.39974 1.85874,1.18083 5.73996,1.13026 5.73996,-0.0747 z m 58.92126,3.24883 c -1.49316,-1.49844 -0.60313,-6.93934 1.34904,-8.24685 1.68974,-1.13175 2.00598,-2.39842 2.05813,-8.24463 0.0709,-7.94983 -0.68899,-11.12354 -2.66321,-11.12354 -0.97589,0 -1.39148,-1.16444 -1.39148,-3.8986 l 0,-3.89858 4.18493,0 c 5.78921,0 7.56258,1.59532 8.19125,7.36912 0.28836,2.6477 1.11808,5.16472 1.84388,5.59339 1.84514,1.08977 1.73607,8.11084 -0.13723,8.8322 -1.00134,0.38561 -1.45685,1.95577 -1.45685,5.02182 0,5.65898 -3.1225,9.24544 -8.04935,9.24544 -1.80493,0 -3.57296,-0.2924 -3.92911,-0.64977 z m 7.8993,-3.44375 c 0.64101,-0.64327 1.16547,-3.2711 1.16547,-5.83964 0,-3.61449 0.4391,-4.94519 1.94246,-5.8874 1.06835,-0.66954 1.94246,-1.76975 1.94246,-2.44488 0,-0.67514 -0.87411,-2.10471 -1.94246,-3.17681 -1.24366,-1.24805 -1.9478,-3.26414 -1.95732,-5.60424 -0.0185,-4.56474 -0.76532,-5.76168 -4.12257,-6.60724 -2.23674,-0.56338 -2.66117,-0.35919 -2.66117,1.28041 0,1.07287 0.65558,2.20313 1.45685,2.5117 0.90654,0.3491 1.45684,1.83479 1.45684,3.93324 0,1.85474 0.72648,4.1012 1.61428,4.99217 1.50482,1.51014 1.50482,1.80579 0,4.36226 -0.8878,1.50827 -1.61428,4.27244 -1.61428,6.14259 0,2.12337 -0.54709,3.61095 -1.45684,3.96128 -0.80127,0.30855 -1.45685,1.23267 -1.45685,2.05358 0,1.79746 3.93882,2.0233 5.63313,0.32298 z m -39.62614,-14.42479 0,-17.54366 3.3993,0 3.3993,0 0,17.54366 0,17.54366 -3.3993,0 -3.3993,0 0,-17.54366 z m 3.88491,0 c 0,-9.74648 -0.36421,-15.59437 -0.97123,-15.59437 -0.60702,0 -0.97123,5.84789 -0.97123,15.59437 0,9.74648 0.36421,15.59436 0.97123,15.59436 0.60702,0 0.97123,-5.84788 0.97123,-15.59436 z M 3.530282,336.18278 c -1.407476,-1.11102 -2.559053,-2.86539 -2.559053,-3.89859 0,-1.50091 0.732171,-1.90128 3.642109,-1.99161 2.098078,-0.0652 2.818633,-0.31619 1.699651,-0.59222 -3.309531,-0.81635 -4.370531,-2.31694 -4.370531,-6.18134 0,-4.98146 2.57603,-6.75845 9.797419,-6.75845 4.073635,0 6.137138,0.51848 8.039338,2.02003 2.995154,2.36428 3.194577,3.61615 0.859402,5.39504 -1.077122,0.82053 -1.246184,1.30612 -0.461577,1.32576 2.059424,0.0516 3.373341,4.89159 2.139443,7.88095 -1.402629,3.39817 -4.666522,4.82047 -11.062065,4.82047 -3.754743,0 -5.863844,-0.55158 -7.724136,-2.02004 z m 14.998457,-2.43434 c 3.633717,-3.30005 1.510397,-6.1343 -5.795256,-7.7356 -3.498076,-0.76676 -4.478036,-1.40661 -4.478036,-2.92394 0,-1.72261 0.581572,-1.91798 5.13921,-1.72647 5.403471,0.22704 6.105796,-1.07819 1.166009,-2.16697 -3.440395,-0.75828 -9.309308,0.97364 -10.073772,2.97281 -1.25646,3.2858 0.897949,4.82386 9.416172,6.7223 3.853759,0.8589 3.354606,4.78501 -0.666982,5.24619 -1.534056,0.17592 -3.260416,-0.15302 -3.836355,-0.73099 -1.379339,-1.38419 -5.839097,-1.39125 -4.987134,-0.008 1.945012,3.15817 10.782983,3.37766 14.116144,0.35057 z m 32.600118,2.99299 c -0.800943,-0.80376 -1.757342,-3.87969 -2.125341,-6.83542 -0.367998,-2.95571 -1.055055,-5.61341 -1.526801,-5.90599 -1.1474,-0.71163 -1.104054,-7.23945 0.04808,-7.23945 0.498182,0 1.184734,-0.88201 1.525675,-1.95999 0.646547,-2.04424 5.119979,-4.86255 7.718221,-4.86255 1.072596,0 1.505075,0.98021 1.505075,3.41127 0,2.76149 0.369989,3.41127 1.942458,3.41127 1.618718,0 1.942458,0.64976 1.942458,3.89859 0,3.24882 -0.32374,3.89859 -1.942458,3.89859 -1.510796,0 -1.942458,0.64976 -1.942458,2.92394 0,2.2092 0.445143,2.92395 1.821054,2.92395 1.25981,0 2.006802,0.932 2.423741,3.02405 0.33148,1.66321 0.360316,3.41757 0.0641,3.89858 -0.908876,1.47577 -9.855139,1.01742 -11.453762,-0.58684 z m 8.809348,-2.06945 c 0.196587,-0.60182 -0.534554,-1.32829 -1.624749,-1.61439 -1.697388,-0.44544 -1.982172,-1.30345 -1.982172,-5.97198 0,-4.80204 0.231512,-5.45182 1.942458,-5.45182 1.079143,0 1.942458,-0.64976 1.942458,-1.46196 0,-0.8122 -0.863315,-1.46197 -1.942458,-1.46197 -1.507697,0 -1.942458,-0.64976 -1.942458,-2.90305 0,-2.74287 -0.133971,-2.84179 -2.428072,-1.79285 -1.33544,0.61061 -2.428073,1.91698 -2.428073,2.90305 0,0.98606 -0.65558,1.79285 -1.456844,1.79285 -0.801264,0 -1.456843,0.65789 -1.456843,1.46197 0,0.80408 0.655579,1.46196 1.456843,1.46196 1.131152,0 1.456844,1.29181 1.456844,5.77828 0,4.0353 0.476281,6.25622 1.578946,7.36277 1.719523,1.72558 6.309269,1.65699 6.88412,-0.10286 z m 30.310309,1.50547 c -1.56486,-1.57036 -1.86667,-3.29147 -1.86667,-10.64506 l 0,-8.77182 4.85615,0 4.85614,0 0,6.90374 c 0,5.08795 0.31931,6.79789 1.21404,6.5012 0.768636,-0.25487 1.319386,-2.78764 1.501216,-6.90376 l 0.28718,-6.50118 4.81177,0 4.81177,0 0,10.66421 0,10.66421 -9.30247,-0.0191 c -7.865656,-0.0162 -9.590776,-0.30847 -11.169126,-1.89239 z m 8.81685,-1.3859 c 3.165256,-1.81578 4.856146,-1.81578 4.856146,0 0,0.81221 0.86331,1.46197 1.94245,1.46197 1.79858,0 1.94246,-0.64976 1.94246,-8.77183 0,-8.70685 -0.018,-8.77183 -2.42807,-8.77183 -2.33301,0 -2.42807,0.24041 -2.42807,6.14028 0,6.33299 -1.02393,8.47943 -4.044996,8.47943 -2.49601,0 -3.72483,-3.03344 -3.72483,-9.19507 0,-4.77487 -0.23267,-5.42464 -1.94246,-5.42464 -1.76188,0 -1.94246,0.64977 -1.94246,6.98944 0,5.13602 0.42623,7.46212 1.60737,8.77184 1.91093,2.11898 2.93446,2.1722 6.16246,0.32041 z m 42.811506,1.2183 c -0.46515,-1.20612 -2.20255,-5.60345 -3.86088,-9.77184 -1.65834,-4.1684 -3.01515,-8.00608 -3.01515,-8.52817 0,-0.5221 2.17203,-0.94927 4.82675,-0.94927 l 4.82676,0 1.27982,4.4046 1.27981,4.4046 1.17392,-4.4046 1.17391,-4.4046 4.85988,0 c 2.67293,0 4.8618,0.32894 4.86416,0.73098 0.002,0.40203 -1.79394,5.22655 -3.99176,10.72112 l -3.99603,9.99015 -4.28773,0 c -3.54848,0 -4.43356,-0.3781 -5.13346,-2.19297 z m 10.77524,-8.54468 c 3.53971,-8.68481 3.55077,-8.75531 1.37327,-8.75531 -1.8555,0 -2.44589,0.9049 -3.81534,5.84789 -1.05475,3.80706 -2.12572,5.84789 -3.06884,5.84789 -0.94312,0 -2.0141,-2.04083 -3.06884,-5.84789 -1.38557,-5.00115 -1.94663,-5.84789 -3.87483,-5.84789 l -2.25467,0 1.82869,4.62957 c 5.07505,12.84824 5.11215,12.91441 7.2323,12.89758 1.70173,-0.0136 2.72851,-1.60813 5.64826,-8.77184 z m 33.44316,6.59539 c -0.83192,-2.27823 -2.39753,-6.5545 -3.47914,-9.50281 -2.81888,-7.68391 -2.72666,-7.95332 2.60408,-7.60692 4.52188,0.29383 4.58276,0.34326 5.59764,4.54544 l 1.02605,4.24838 1.19722,-4.49204 c 1.1965,-4.48929 1.19989,-4.49204 5.5325,-4.49204 4.25462,0 4.35814,0.0765 5.56433,4.11666 l 1.22906,4.11668 1.07797,-3.87302 c 1.04028,-3.73765 1.2363,-3.88339 5.60853,-4.17006 5.55732,-0.3644 5.5576,-0.36185 1.24454,11.62906 l -3.28603,9.1356 -4.4326,0.29498 -4.4326,0.29496 -1.15426,-4.19356 -1.15425,-4.19356 -1.40596,4.14225 c -1.36413,4.01904 -1.53117,4.14226 -5.61523,4.14226 -4.06732,0 -4.26026,-0.13969 -5.72185,-4.14226 z m 9.49796,-3.22594 c 2.20512,-7.02003 4.38983,-6.91129 6.31476,0.31432 1.12286,4.21483 1.73594,5.10458 3.51736,5.10458 2.15879,0 2.32304,-0.33437 8.01891,-16.32535 0.25418,-0.7136 -0.37043,-1.21831 -1.50773,-1.21831 -1.55807,0 -2.21073,1.10621 -3.30346,5.59919 -1.88824,7.76391 -3.83669,7.85565 -6.11992,0.28814 -1.46574,-4.85808 -2.14701,-5.88733 -3.89681,-5.88733 -1.74823,0 -2.43031,1.02672 -3.88492,5.84789 -0.98053,3.24988 -2.32666,5.84789 -3.03002,5.84789 -0.6961,0 -1.74555,-1.86402 -2.33211,-4.14226 -0.58656,-2.27824 -1.28844,-4.90979 -1.55973,-5.84789 -0.27129,-0.9381 -1.31914,-1.70563 -2.32856,-1.70563 -1.71037,0 -1.62839,0.59711 1.20441,8.77183 2.55432,7.3711 3.37234,8.77183 5.12269,8.77183 1.67594,0 2.41558,-1.05889 3.78513,-5.4189 z m 44.30034,5.85452 c 0,-0.83252 1.09263,-3.12729 2.42807,-5.0995 1.33544,-1.97219 2.42808,-3.94585 2.42808,-4.38591 0,-0.44005 -1.09264,-2.41372 -2.42808,-4.38592 -3.59703,-5.31214 -3.24666,-6.05724 2.84824,-6.05724 4.49657,0 5.37138,0.30059 5.91962,2.034 l 0.64331,2.034 1.41967,-2.034 c 1.11382,-1.5958 2.45402,-2.034 6.22074,-2.034 2.76214,0 4.80108,0.44282 4.80108,1.04269 0,0.5735 -1.26176,2.88307 -2.80391,5.1324 l -2.80392,4.0897 2.76415,3.8831 c 4.2017,5.90258 3.82822,7.29436 -1.9574,7.29436 -3.78438,0 -5.10521,-0.43575 -6.23729,-2.0577 l -1.43621,-2.05772 -1.28056,2.05772 c -1.01165,1.6256 -2.25122,2.0577 -5.90307,2.0577 -3.5316,0 -4.62252,-0.35724 -4.62252,-1.51368 z m 8.74106,-3.35957 c 1.1411,-1.60817 2.68933,-2.92393 3.44049,-2.92393 0.75118,0 2.0438,1.31576 2.8725,2.92393 1.06709,2.07079 2.21813,2.92395 3.94487,2.92395 l 2.43815,0 -2.46309,-3.6375 c -2.99068,-4.41669 -3.07115,-6.35353 -0.44141,-10.62351 l 2.02167,-3.28265 -1.99929,0 c -1.0996,0 -2.71519,1.09648 -3.59021,2.43662 -0.87501,1.34014 -2.14598,2.43661 -2.82437,2.43661 -0.6784,0 -1.94937,-1.09647 -2.82438,-2.43661 -1.0025,-1.53541 -2.499,-2.43662 -4.04604,-2.43662 l -2.45511,0 2.4775,3.2596 c 2.94299,3.87205 3.08674,5.7894 0.69429,9.26037 -3.20489,4.64964 -3.29826,5.02369 -1.25394,5.02369 1.06351,0 2.86728,-1.31577 4.00837,-2.92395 z m 86.11564,4.22348 c -1.6945,-1.70047 -0.33721,-5.57944 3.36113,-9.6058 l 4.00865,-4.36416 -3.52303,0 c -3.38542,0 -3.52304,-0.13453 -3.52304,-3.44535 l 0,-3.44538 9.9551,0.27777 c 9.21055,0.25698 9.97656,0.42814 10.2417,2.28828 0.17133,1.2023 -1.32602,4.04288 -3.72476,7.0662 l -4.01127,5.05566 3.96757,0 c 3.88686,0 3.96747,0.0695 3.96747,3.41128 l 0,3.41127 -10.036,0 c -5.51979,0 -10.32737,-0.2924 -10.68352,-0.64977 z m 18.77706,-2.7615 c 0,-1.1046 -1.18704,-1.46198 -4.85614,-1.46198 -6.15944,0 -6.23462,-1.17451 -0.48562,-7.59131 2.40379,-2.68301 4.37053,-5.36198 4.37053,-5.95329 0,-0.68815 -2.62173,-1.07511 -7.28422,-1.07511 -5.82737,0 -7.28421,0.29239 -7.28421,1.46197 0,1.05587 1.07923,1.46196 3.88491,1.46196 5.09128,0 4.9895,1.43023 -0.48561,6.82255 -2.40379,2.36745 -4.37053,5.09031 -4.37053,6.05082 0,1.54174 0.96724,1.74636 8.25544,1.74636 6.6907,0 8.25545,-0.2771 8.25545,-1.46197 z m 137.91452,-9.39538 c 0,-2.69965 0.56244,-4.46324 1.69965,-5.32954 2.2956,-1.74871 7.47643,-1.68514 10.98334,0.13478 2.11145,1.09568 3.37056,1.22503 4.74407,0.48732 3.5377,-1.89997 4.91121,-1.24226 4.91121,2.35179 0,5.77231 -5.65284,7.99308 -12.7603,5.01294 -2.79859,-1.17343 -3.64356,-1.17855 -5.70325,-0.0345 -3.57898,1.9879 -3.87472,1.78775 -3.87472,-2.62279 z m 16.93329,1.13499 c 3.58043,-1.36606 3.06733,-2.94807 -0.95618,-2.94807 -1.89613,0 -4.77029,-0.68643 -6.387,-1.5254 -2.67214,-1.38666 -3.15358,-1.38461 -5.29358,0.0224 -3.27547,2.15376 -2.93739,3.12916 0.92781,2.67632 1.83757,-0.21527 4.50903,0.2826 6.07018,1.13134 3.40173,1.84926 2.6907,1.76814 5.63877,0.64334 z M 95.666064,294.6173 c -3.17843,-0.77704 -5.34176,-3.31734 -5.34176,-6.27259 0,-1.93044 0.48834,-2.77288 1.60737,-2.77288 1.46713,0 1.45996,-0.16346 -0.0823,-1.87365 -3.57555,-3.96486 -2.7644,-14.41421 1.28789,-16.59056 0.86641,-0.46533 5.61405,-0.86531 10.550316,-0.88883 l 8.975,-0.0428 0,10.72098 c 0,12.31283 -1.14838,15.6638 -5.9428,17.34103 -3.1284,1.09439 -7.513236,1.24487 -11.053706,0.37931 z m 12.140356,-4.17224 c 1.6958,-1.70175 1.94246,-3.24882 1.94246,-12.18309 0,-9.58403 -0.12333,-10.2338 -1.94246,-10.2338 -1.07914,0 -1.94246,0.64977 -1.94246,1.46197 0,1.89966 -1.12,1.845 -4.72372,-0.23054 -2.835576,-1.63314 -3.034286,-1.62117 -5.663276,0.34109 -3.93654,2.9382 -4.32349,9.09464 -0.79424,12.63633 1.50812,1.51344 3.13277,2.30201 4.03044,1.95633 0.82714,-0.31853 2.585566,-0.85158 3.907616,-1.18455 2.28188,-0.57473 2.38809,-0.41394 2.09504,3.17175 -0.2736,3.34766 -0.62588,3.81358 -3.09789,4.09705 -1.53406,0.17593 -3.260416,-0.15301 -3.836356,-0.73098 -1.29344,-1.298 -4.54358,-1.38715 -4.54358,-0.12462 0,3.32113 11.475396,4.12699 14.568426,1.02306 z M 97.120694,279.23078 c -1.38269,-3.64956 -0.23552,-7.207 2.55031,-7.90867 3.557856,-0.8961 5.367366,1.2208 5.027006,5.88094 -0.27097,3.71005 -0.50713,4.00379 -3.448,4.28833 -2.650616,0.25645 -3.313096,-0.10622 -4.129316,-2.2606 z m 5.343966,-2.93146 c 0,-2.72712 -2.844686,-2.4249 -3.235356,0.34372 -0.24946,1.76784 0.0776,2.2025 1.456836,1.93595 1.01199,-0.19558 1.77852,-1.17809 1.77852,-2.27967 z m -0.0559,10.33805 c 0.29935,-0.48607 -0.33043,-0.6542 -1.39952,-0.37365 -2.267806,0.59513 -2.554476,1.25741 -0.54428,1.25741 0.76974,0 1.64445,-0.39769 1.9438,-0.88376 z m 118.68555,8.0364 c -1.44788,-0.41194 -1.68434,-1.11859 -1.20096,-3.58912 0.33104,-1.69191 1.23453,-3.55062 2.00777,-4.1305 1.0782,-0.80858 1.47129,-4.10241 1.68656,-14.1324 l 0.28065,-13.07809 4.61334,-0.29706 4.61334,-0.29707 0,15.94881 c 0,11.45291 -0.35184,16.43167 -1.24812,17.66171 -1.28062,1.75754 -7.44521,2.85467 -10.75262,1.91372 z m 8.80773,-5.20334 c 0.72843,-1.45259 1.22766,-6.27434 1.23619,-11.93945 0.0143,-9.49039 0.0112,-9.50281 -2.41375,-9.50281 -2.42794,0 -2.42807,5.4e-4 -2.42807,9.73822 0,8.68266 -0.21056,9.87017 -1.94246,10.95557 -3.08298,1.93213 -2.43034,3.84344 1.19189,3.4905 2.19171,-0.21357 3.5018,-1.03821 4.3562,-2.74203 z m 1.25051,-26.80282 c 0,-0.90968 -0.91727,-1.46198 -2.42807,-1.46198 -1.51081,0 -2.42807,0.5523 -2.42807,1.46198 0,0.90966 0.91726,1.46197 2.42807,1.46197 1.5108,0 2.42807,-0.55231 2.42807,-1.46197 z m 270.00163,17.57683 0,-14.09922 8.43969,0.0314 c 9.82097,0.0365 11.60036,0.75898 13.57982,5.5131 3.35502,8.05804 -0.84467,15.83143 -8.55322,15.83143 -3.64279,0 -3.754,0.10106 -3.754,3.41126 l 0,3.41127 -4.85614,0 -4.85615,0 0,-14.09922 z m 6.79861,8.30886 c 0,-4.61104 1.1205,-5.50895 4.90907,-3.93413 2.37913,0.98892 3.24847,0.92197 5.26776,-0.40578 4.53729,-2.98345 4.45046,-11.90044 -0.1454,-14.92235 -2.35086,-1.54579 -2.67913,-1.54534 -5.37507,0.008 -3.53683,2.03661 -4.65636,2.0827 -4.65636,0.1913 0,-0.8122 -0.86323,-1.46197 -1.94246,-1.46197 -1.83883,0 -1.94246,0.64977 -1.94246,12.1831 0,11.53333 0.10363,12.18309 1.94246,12.18309 1.61389,0 1.94246,-0.64976 1.94246,-3.84106 z m 1.94246,-7.85472 c -2.33348,-2.34169 -2.46537,-4.66486 -0.43055,-7.5803 3.02062,-4.3277 7.22915,-2.09081 7.22915,3.84237 0,2.63027 -0.53194,3.95507 -1.87855,4.6783 -2.50616,1.34594 -2.6736,1.31392 -4.92005,-0.94037 z M 514.26578,276.8 c 0,-2.67135 -2.16264,-3.77741 -3.01703,-1.54302 -0.80389,2.10221 0.31458,4.72119 1.80357,4.22312 0.66743,-0.22326 1.21346,-1.4293 1.21346,-2.6801 z m 48.07583,13.93511 0,-3.71535 -4.12772,0.32937 c -3.44951,0.27525 -4.52661,-0.0968 -6.5558,-2.26446 -2.03346,-2.17234 -2.42807,-3.54502 -2.42807,-8.44758 0,-5.17565 0.30914,-6.12053 2.66797,-8.15664 2.41243,-2.08243 3.48176,-2.2843 11.16913,-2.10858 l 8.50117,0.19432 0,13.64508 0,13.64507 -4.61334,0.29706 -4.61334,0.29707 0,-3.71536 z m 6.79861,-10.52384 c 0,-11.53333 -0.10354,-12.1831 -1.94246,-12.1831 -1.07913,0 -1.94246,0.64977 -1.94246,1.46197 0,1.84858 -0.89217,1.83837 -4.67113,-0.0535 -2.29258,-1.14774 -3.50176,-1.26056 -4.98308,-0.46498 -4.64519,2.49477 -5.44277,10.31039 -1.46005,14.30714 2.47168,2.48046 2.6265,2.49244 8.44338,0.65365 1.45063,-0.45854 1.69965,0.12207 1.69965,3.96232 0,4.1498 0.18881,4.49958 2.42807,4.49958 l 2.42808,0 0,-12.18309 z m -12.27896,-0.0755 c -2.86144,-4.38247 1.23744,-11.107 5.23755,-8.5926 2.43778,1.53231 2.85347,8.20399 0.61362,9.84757 -2.53947,1.86346 -4.02273,1.54532 -5.85117,-1.25497 z m 5.02582,-2.45919 c 0.72356,-2.28768 -0.74843,-4.37412 -2.37446,-3.36564 -1.16587,0.72308 -1.4248,3.74326 -0.4084,4.76327 1.16421,1.16829 2.12378,0.68637 2.78286,-1.39763 z M 5.934317,286.21601 c -3.154212,-1.8291 -4.887389,-5.26024 -4.928628,-9.75709 -0.02749,-2.99318 0.633718,-4.42288 3.267759,-7.06621 2.90043,-2.91063 3.910673,-3.31379 8.303678,-3.31379 6.499678,0 10.280226,2.00702 11.655059,6.18748 1.39248,4.2341 0.350177,10.78017 -2.065843,12.97432 -2.469262,2.24252 -12.959789,2.87284 -16.232025,0.97529 z m 11.402919,-1.71413 c 1.682237,-0.58849 3.058614,-1.46568 3.058614,-1.9493 0,-1.19757 -3.622937,-1.11853 -4.370531,0.0953 -0.829711,1.34723 -4.705022,1.22377 -6.118743,-0.19492 -0.641011,-0.64326 -1.165475,-2.17835 -1.165475,-3.41126 0,-2.12567 0.351896,-2.2417 6.798604,-2.2417 7.68988,0 8.4258,-0.91686 4.454629,-5.54988 -3.181843,-3.71213 -9.866114,-3.89481 -13.603053,-0.37178 -3.301528,3.11254 -3.455449,8.61392 -0.32106,11.4756 3.66098,3.34244 6.373934,3.85964 11.267015,2.1479 z M 8.741101,274.07102 c 0,-2.34307 1.868898,-4.09351 4.370531,-4.09351 2.501633,0 4.370531,1.75044 4.370531,4.09351 0,1.42949 -0.809355,1.75438 -4.370531,1.75438 -3.561176,0 -4.370531,-0.32489 -4.370531,-1.75438 z m 5.564337,-0.78379 c -0.32273,-0.32386 -1.160415,-0.35847 -1.861526,-0.0768 -0.774778,0.31113 -0.544636,0.54208 0.586787,0.58884 1.023831,0.0423 1.597468,-0.18803 1.274739,-0.51191 z m 0,6.82255 c -0.32273,-0.32386 -1.160415,-0.35849 -1.861526,-0.0768 -0.774778,0.31112 -0.544636,0.54208 0.586787,0.58884 1.023831,0.0423 1.597468,-0.18804 1.274739,-0.5119 z m 36.198512,0.74653 c 0,-5.12015 -0.355305,-6.90849 -1.456844,-7.33267 -0.914402,-0.35213 -1.456843,-1.84255 -1.456843,-4.00288 0,-2.40966 0.436898,-3.44184 1.456843,-3.44184 0.801264,0 1.456844,-0.80922 1.456844,-1.79825 0,-3.39985 3.229735,-5.15893 8.877694,-4.83526 5.754843,0.32979 5.514143,-0.16366 4.186483,8.5828 -0.366164,2.41225 -1.247253,4.85607 -1.957988,5.43071 -0.766805,0.61998 -1.411624,3.5922 -1.585872,7.30985 l -0.293641,6.26506 -4.613338,0.29707 -4.613338,0.29707 0,-6.77166 z m 6.798603,-2.19822 c 0,-6.09411 0.230298,-6.97422 1.942458,-7.42353 1.068352,-0.28037 1.942458,-1.11649 1.942458,-1.85805 0,-0.74156 -0.874106,-1.3483 -1.942458,-1.3483 -2.794216,0 -2.406356,-2.79519 0.544063,-3.92089 2.945592,-1.12387 2.279611,-2.90165 -1.086999,-2.90165 -2.6368,0 -6.255667,3.10105 -6.255667,5.36056 0,0.80409 -0.437053,1.46198 -0.971229,1.46198 -0.534176,0 -0.971229,0.65789 -0.971229,1.46197 0,0.80408 0.437053,1.46197 0.971229,1.46197 0.561157,0 0.971229,3.0864 0.971229,7.30986 0,7.14741 0.054,7.30986 2.428073,7.30986 2.361757,0 2.428072,-0.18885 2.428072,-6.91378 z m 81.583237,-5.26932 0,-14.13239 4.85615,0 4.85614,0 0,3.66196 0,3.66195 4.23179,-0.33777 c 3.65658,-0.29183 4.51468,0.0232 6.31299,2.31739 1.75072,2.23351 2.0812,3.94976 2.0812,10.80819 l 0,8.15307 -4.81177,0 -4.81177,0 -0.28718,-6.57888 c -0.15795,-3.61838 -0.72424,-6.57887 -1.25841,-6.57887 -0.53418,0 -1.10046,2.96049 -1.25842,6.57887 l -0.28718,6.57888 -4.81177,0 -4.81177,0 0,-14.1324 z m 6.79861,7.00882 c 0,-6.13107 1.571,-8.79273 4.91056,-8.3197 2.21562,0.31385 2.39278,0.77422 2.66084,6.91511 0.27312,6.25676 0.40389,6.57887 2.67088,6.57887 2.31823,0 2.38369,-0.20011 2.38369,-7.28739 0,-6.63661 -0.21022,-7.42562 -2.35406,-8.83526 -2.15224,-1.41517 -2.61268,-1.41368 -5.37029,0.0174 -3.9562,2.05304 -4.90162,1.29453 -4.90162,-3.93251 0,-3.67863 -0.2916,-4.32839 -1.94246,-4.32839 -1.83886,0 -1.94246,0.64976 -1.94246,12.1831 0,11.53333 0.1036,12.1831 1.94246,12.1831 1.69853,0 1.94246,-0.64977 1.94246,-5.17428 z m 42.1806,5.8356 c -0.27089,-0.7084 -0.36643,-6.95833 -0.21233,-13.88874 l 0.28019,-12.60075 4.61334,-0.29706 4.61333,-0.29707 0,14.18579 0,14.18581 -4.401,0 c -2.75184,0 -4.58557,-0.48265 -4.89353,-1.28798 z m 7.35208,-9.43315 c 0,-8.70685 -0.018,-8.77183 -2.42808,-8.77183 -2.41008,0 -2.42807,0.065 -2.42807,8.77183 0,8.70685 0.018,8.77183 2.42807,8.77183 2.41009,0 2.42808,-0.0651 2.42808,-8.77183 z m 0,-14.13239 c 0,-0.90967 -0.91727,-1.46198 -2.42808,-1.46198 -1.5108,0 -2.42807,0.55231 -2.42807,1.46198 0,0.90966 0.91727,1.46197 2.42807,1.46197 1.51081,0 2.42808,-0.55231 2.42808,-1.46197 z m 64.10111,10.72112 0,-14.13239 4.85615,0 4.85614,0 0,5.02429 c 0,4.80572 0.0773,4.95413 1.77613,3.41127 2.1423,-1.94558 11.82108,-2.30675 11.82108,-0.44112 0,0.64456 -1.28016,2.50856 -2.8448,4.14225 l -2.84479,2.97035 3.3453,5.67313 c 1.83991,3.12021 3.09427,6.08071 2.78747,6.57887 -0.3068,0.49815 -2.66426,0.90575 -5.23882,0.90575 -4.28542,0 -4.78298,-0.2471 -5.88788,-2.92395 -0.66379,-1.60817 -1.59092,-2.92394 -2.06029,-2.92394 -0.46936,0 -0.8534,1.31577 -0.8534,2.92394 0,2.85897 -0.10791,2.92395 -4.85614,2.92395 l -4.85615,0 0,-14.1324 z m 6.79861,10.45067 c 0,-2.26611 2.67958,-6.06475 4.27809,-6.06475 0.68985,0 2.04261,1.75436 3.00612,3.89859 1.3469,2.99739 2.29774,3.89859 4.11336,3.89859 1.29883,0 2.21332,-0.32895 2.03219,-0.73098 -0.18111,-0.40205 -1.56179,-3.08457 -3.06818,-5.96117 l -2.73887,-5.23018 2.68334,-2.81066 2.68334,-2.81067 -2.36697,-0.009 c -1.48558,-0.006 -3.30965,1.14209 -4.89849,3.08188 -3.83313,4.6798 -5.72393,3.35279 -5.72393,-4.01717 0,-5.22872 -0.21471,-5.87848 -1.94246,-5.87848 -1.83886,0 -1.94246,0.64976 -1.94246,12.1831 0,11.53333 0.1036,12.1831 1.94246,12.1831 1.21392,0 1.94246,-0.64977 1.94246,-1.73243 z m 41.76284,-10.45067 0,-14.13239 4.85615,0 4.85615,0 0,14.13239 0,14.1324 -4.85615,0 -4.85615,0 0,-14.1324 z m 7.76984,0 0,-12.1831 -2.42808,0 -2.42807,0 0,12.1831 0,12.1831 2.42807,0 2.42808,0 0,-12.1831 z m 28.1656,3.4647 0,-10.66771 15.19061,0.0835 c 19.09329,0.10504 18.80241,-0.088 18.80241,12.48004 l 0,8.77183 -4.85615,0 -4.85614,0 0,-6.82255 c 0,-8.73698 -1.76133,-8.93745 -2.14088,-0.24364 l -0.2872,6.57885 -4.56778,0.29521 -4.56779,0.2952 -0.28836,-6.63041 c -0.37227,-8.56148 -2.14486,-8.59776 -2.51791,-0.0516 l -0.28719,6.57888 -4.81176,0 -4.81186,0 0,-10.6677 z m 6.81191,4.08882 c 0.0175,-6.18527 0.82001,-8.84018 2.86843,-9.49264 3.85752,-1.22861 4.8881,0.33251 4.8881,7.40396 0,6.51639 0.0728,6.71826 2.42807,6.71826 2.34173,0 2.42807,-0.22602 2.42807,-6.35611 0,-5.81371 0.20483,-6.44972 2.39933,-7.45315 3.91463,-1.78989 5.3705,0.26862 5.3705,7.59338 0,5.9805 0.0923,6.21588 2.42808,6.21588 2.28743,0 2.42807,-0.30209 2.42807,-5.21512 0,-10.15466 -3.07025,-13.80938 -9.01106,-10.72643 -2.63631,1.36807 -3.16203,1.34864 -6.07271,-0.22441 -2.99187,-1.61689 -3.3385,-1.62227 -5.67198,-0.0879 -3.07569,2.02233 -4.49621,2.07672 -4.49621,0.17219 0,-0.8122 -0.86322,-1.46197 -1.94245,-1.46197 -1.79853,0 -1.94246,0.64977 -1.94246,8.77183 0,8.12206 0.14393,8.77183 1.94246,8.77183 1.66798,0 1.9444,-0.65421 1.95576,-4.62958 z m 54.37552,-4.08534 0,-10.6642 9.2157,0.0189 c 8.71736,0.018 9.32127,0.15372 11.16913,2.51115 1.6035,2.04574 1.95344,3.95266 1.95344,10.64525 l 0,8.15307 -4.81176,0 -4.81176,0 -0.28719,-6.57888 c -0.15793,-3.61842 -0.72425,-6.57891 -1.25843,-6.57891 -0.53417,0 -1.1004,2.96049 -1.25832,6.57887 l -0.28719,6.57888 -4.81176,0 -4.81186,0 0,-10.66422 z m 6.81191,4.08534 c 0.0175,-6.18527 0.82001,-8.84018 2.86843,-9.49264 3.85752,-1.22861 4.8881,0.33251 4.8881,7.40396 0,6.51639 0.0728,6.71826 2.42807,6.71826 2.37349,0 2.42807,-0.16393 2.42807,-7.28739 0,-6.66917 -0.20299,-7.42088 -2.39291,-8.86082 -2.19207,-1.44139 -2.65282,-1.44328 -5.49094,-0.0224 -3.85112,1.92797 -4.74213,1.94468 -4.74213,0.089 0,-0.8122 -0.86323,-1.46196 -1.94246,-1.46196 -1.79852,0 -1.94245,0.64976 -1.94245,8.77182 0,8.12206 0.14393,8.77183 1.94245,8.77183 1.66799,0 1.94441,-0.65421 1.95577,-4.62958 z m 42.98592,3.14128 c -3.17592,-3.18714 -3.38814,-3.77066 -2.91204,-8.00923 0.75076,-6.68357 4.68492,-9.99542 11.87357,-9.99542 4.49679,0 5.79746,0.43624 8.483,2.84527 2.84347,2.55075 3.16417,3.37303 3.09774,7.94352 -0.0651,4.45568 -0.46444,5.4483 -3.17184,7.87585 -2.62193,2.35098 -3.93076,2.77761 -8.52127,2.77761 -4.91132,0 -5.74716,-0.3247 -8.84916,-3.4376 z m 14.96557,-0.97483 c 4.33352,-2.84947 4.13704,-9.89717 -0.35848,-12.8531 -1.41848,-0.93269 -4.29876,-1.69581 -6.4006,-1.69581 -6.78578,0 -10.7585,7.45394 -6.91087,12.96657 2.92806,4.19508 8.68327,4.86126 13.66995,1.58234 z m -9.35478,-1.38472 c -1.7658,-1.12102 -1.8466,-7.13574 -0.12384,-9.21882 1.51716,-1.83457 5.03252,-2.03638 6.67963,-0.38347 1.50784,1.5131 1.50784,7.8435 0,9.35662 -1.37788,1.38276 -4.57585,1.5026 -6.55579,0.24567 z m 5.76395,-4.86661 c -0.0447,-1.64836 -1.93925,-3.18537 -3.28635,-2.6666 -1.84766,0.71149 -2.04298,3.67882 -0.35382,5.37395 0.95394,0.95727 1.45354,0.85878 2.42808,-0.47868 0.67481,-0.92618 1.22034,-1.92908 1.21209,-2.22867 z m 132.10201,-0.0241 0,-10.68796 8.25544,0.0307 c 8.86713,0.033 9.06682,0.17686 7.64338,5.50713 -0.38985,1.45982 -1.32475,2.19296 -2.79655,2.19296 -2.73421,5e-5 -3.38998,1.61804 -3.38998,8.36427 l 0,5.28085 -4.85615,0 -4.85614,0 0,-10.68795 z m 6.80404,5.57104 c 0.01,-5.67081 1.82445,-10.47746 3.95562,-10.47746 1.06,0 2.18614,-0.67681 2.50247,-1.50401 0.88178,-2.30609 -0.41831,-2.89452 -2.40632,-1.08908 -2.21702,2.01346 -4.05721,2.08443 -4.05721,0.15647 0,-0.8122 -0.86323,-1.46197 -1.94246,-1.46197 -1.79852,0 -1.94245,0.64977 -1.94245,8.77183 0,8.12206 0.14393,8.77183 1.94245,8.77183 1.5429,0 1.94363,-0.65158 1.9479,-3.16761 z m -387.52579,-57.26056 0,-17.54366 6.79861,0 6.7986,0 0,3.89858 c 0,3.50875 -0.24281,3.8986 -2.42807,3.8986 -2.42807,0 -2.42807,0 -2.42807,9.74648 0,9.74648 0,9.74648 2.42807,9.74648 2.18526,0 2.42807,0.38986 2.42807,3.89859 l 0,3.89859 -6.7986,0 -6.79861,0 0,-17.54366 z m 10.68352,13.64499 c 0,-1.29952 -0.64749,-1.9493 -1.94245,-1.9493 -1.83455,0 -1.94246,-0.64976 -1.94246,-11.69577 0,-11.046 0.10791,-11.69578 1.94246,-11.69578 1.29496,0 1.94245,-0.64976 1.94245,-1.9493 0,-1.62442 -0.64749,-1.94929 -3.88491,-1.94929 l -3.88492,0 0,15.59437 0,15.59436 3.88492,0 c 3.23742,0 3.88491,-0.32488 3.88491,-1.94929 z m 60.2162,0 c 0,-3.24882 0.32374,-3.89859 1.94246,-3.89859 1.81297,0 1.94246,-0.64977 1.94246,-9.74648 0,-9.09671 -0.12949,-9.74648 -1.94246,-9.74648 -1.61872,0 -1.94246,-0.64977 -1.94246,-3.8986 l 0,-3.89858 6.31299,0 6.31299,0 0,17.54366 0,17.54366 -6.31299,0 -6.31299,0 0,-3.89859 z m 10.68352,-13.64507 0,-15.59437 -4.37053,0 c -5.00558,0 -6.1297,2.301 -1.91053,3.91077 2.45565,0.93693 2.4595,0.95794 2.18526,11.91532 -0.26392,10.54495 -0.36069,10.98898 -2.45999,11.28818 -1.40436,0.20015 -2.18527,0.98381 -2.18527,2.19295 0,1.58018 0.69998,1.88151 4.37053,1.88151 l 4.37053,0 0,-15.59436 z m 74.7846,13.64507 c 0,-1.82554 0.64752,-1.9493 10.19791,-1.9493 9.55048,0 10.1979,0.12376 10.1979,1.9493 0,1.82554 -0.64742,1.94929 -10.1979,1.94929 -9.55039,0 -10.19791,-0.12375 -10.19791,-1.94929 z M 5.390486,234.69779 C 4.538641,232.09281 0,210.53821 0,209.0977 0,207.95261 1.12984,207.6 4.798988,207.6 l 4.798989,0 0.884731,4.14225 0.884731,4.14225 1.1437,-2.92394 c 0.629036,-1.60817 1.335547,-3.47219 1.570021,-4.14226 0.262883,-0.75125 2.255437,-1.2183 5.197639,-1.2183 l 4.771328,0 1.204072,4.62957 c 1.27197,4.89064 1.423015,4.82904 2.390301,-0.97464 0.608252,-3.64945 0.616391,-3.65493 5.421294,-3.65493 5.809678,0 5.740886,-0.53692 2.06053,16.0817 l -2.590151,11.69576 -5.016117,0.29171 -5.016116,0.29171 -1.53968,-5.31495 c -0.846824,-2.92323 -1.581947,-5.90534 -1.633607,-6.62692 -0.05167,-0.72159 -0.836704,1.53887 -1.74456,5.02324 l -1.650633,6.33521 -5.064901,0.29499 c -3.513266,0.2046 -5.192094,-0.094 -5.480073,-0.97466 z m 8.955655,-4.43724 c 0.581018,-2.01021 1.541146,-5.51893 2.133625,-7.79718 1.959076,-7.53321 4.149799,-4.92922 7.379689,8.77184 0.507963,2.15473 1.178888,2.68028 3.421747,2.68028 2.098243,0 2.913299,-0.54366 3.287678,-2.19296 1.969983,-8.67859 4.395365,-20.37038 4.395365,-21.18827 0,-0.54174 -1.092632,-0.98497 -2.428072,-0.98497 -1.760168,0 -2.428073,0.52301 -2.428073,1.90133 0,4.3018 -2.161441,11.74374 -3.410859,11.74374 -0.762075,0 -1.962669,-2.33769 -2.878228,-5.60423 -0.863927,-3.08232 -1.755331,-6.15246 -1.980889,-6.82253 -0.225568,-0.67007 -1.530191,-1.21831 -2.899158,-1.21831 -1.368967,0 -2.663926,0.54824 -2.877674,1.21831 -0.213748,0.67007 -1.086349,3.74021 -1.939107,6.82253 -2.146513,7.75866 -3.920453,7.362 -5.448459,-1.2183 -1.096226,-6.15569 -1.437098,-6.82254 -3.487509,-6.82254 -1.249894,0 -2.27253,0.37965 -2.27253,0.84366 0,0.46402 1.092633,5.70101 2.428073,11.63775 1.33544,5.93675 2.428072,11.03949 2.428072,11.33944 0,0.29994 1.241979,0.54535 2.759952,0.54535 2.353997,0 2.915347,-0.53761 3.816357,-3.65494 z m 45.870059,4.66247 c 0,-0.51796 1.748213,-3.65611 3.884916,-6.97363 2.136704,-3.31753 3.884917,-6.41978 3.884917,-6.89388 0,-0.47409 -1.529686,-3.14144 -3.399302,-5.92744 -4.623817,-6.89013 -4.467294,-7.52807 1.847083,-7.52807 4.827543,0 5.401044,0.24512 7.183715,3.07058 l 1.937334,3.07057 1.582291,-3.07057 c 1.48255,-2.87704 1.91742,-3.07058 6.8991,-3.07058 3.21716,0 5.31682,0.4231 5.31682,1.0714 0,0.58927 -1.56677,3.61871 -3.48171,6.73208 -3.86486,6.28362 -3.88507,6.11187 1.683,14.30171 1.52347,2.2408 2.76994,4.54341 2.76994,5.1169 0,0.62008 -2.27237,1.0427 -5.60652,1.0427 -5.4355,0 -5.66364,-0.10647 -7.47967,-3.49052 l -1.873175,-3.49051 -1.989799,3.48097 c -1.917255,3.35406 -2.193404,3.48131 -7.574373,3.49051 -3.071512,0.005 -5.584567,-0.41425 -5.584567,-0.93222 z m 11.169134,-4.90612 c 1.348843,-2.14423 3.097059,-3.89859 3.88492,-3.89859 0.787861,0 2.53607,1.75436 3.88492,3.89859 1.79993,2.86132 3.10186,3.89859 4.89326,3.89859 2.3633,0 2.39523,-0.0851 1.00509,-2.68028 -0.78966,-1.47415 -2.32769,-3.99606 -3.41784,-5.60423 -2.62284,-3.86913 -2.51708,-5.04704 0.91879,-10.2338 3.49906,-5.28215 3.56335,-5.84789 0.66445,-5.84789 -1.6127,0 -2.86713,1.10328 -4.43267,3.89859 -1.20089,2.14423 -2.802176,3.8986 -3.558404,3.8986 -0.756228,0 -2.266833,-1.75437 -3.356901,-3.8986 -1.507571,-2.96548 -2.558353,-3.89859 -4.390266,-3.89859 -1.324582,0 -2.408337,0.20407 -2.408337,0.45348 0,0.24941 1.311159,2.52824 2.913687,5.06405 3.440336,5.44394 3.548288,6.68519 0.918792,10.56416 -1.090156,1.60817 -2.628185,4.13008 -3.417842,5.60423 -1.39014,2.59514 -1.358216,2.68028 1.005086,2.68028 1.791403,0 3.093335,-1.03727 4.893265,-3.89859 z m 50.989526,-0.0441 c 0,-5.45761 -0.35795,-6.42422 -4.85615,-13.11373 -2.67088,-3.972 -4.85614,-7.68023 -4.85614,-8.24048 0,-0.58574 2.28417,-1.01867 5.37452,-1.01867 5.11278,0 5.47217,0.16611 7.38014,3.41127 1.10311,1.8762 2.13782,3.41126 2.29939,3.41126 0.16156,0 1.19628,-1.53506 2.29938,-3.41126 1.90797,-3.24516 2.26737,-3.41127 7.38015,-3.41127 3.09034,0 5.37452,0.43293 5.37452,1.01867 0,0.56025 -2.18527,4.26848 -4.85615,8.24048 -4.4982,6.68951 -4.85614,7.65612 -4.85614,13.11373 l 0,5.89191 -5.34176,0 -5.34176,0 0,-5.89191 z m 7.76983,-1.19171 c 0,-3.73861 0.61084,-6.05689 2.24706,-8.52816 1.23588,-1.86662 3.23826,-5.03858 4.44974,-7.04879 l 2.20269,-3.65492 -2.46635,0 c -1.89613,0 -3.05851,1.014 -5.02764,4.38591 -1.40871,2.41225 -3.13382,4.38592 -3.83357,4.38592 -0.69975,0 -2.42486,-1.97367 -3.83357,-4.38592 -1.96914,-3.37191 -3.13151,-4.38591 -5.02764,-4.38591 l -2.46635,0 2.20269,3.65492 c 1.21148,2.01021 3.21386,5.18217 4.44974,7.04879 1.63622,2.47127 2.24706,4.78955 2.24706,8.52816 0,4.82684 0.14541,5.13432 2.42807,5.13432 2.28266,0 2.42807,-0.30748 2.42807,-5.13432 z m 35.61174,6.43385 c -0.35613,-0.35732 -0.64749,-1.93505 -0.64749,-3.50599 0,-2.19982 1.48753,-4.40251 6.47232,-9.58404 l 6.47233,-6.72777 -5.5011,0 -5.5011,0 0,-3.8986 0,-3.89858 12.17084,0 c 9.93064,0 12.27391,0.2695 12.73073,1.46415 1.05425,2.75699 -0.5628,5.85067 -6.49426,12.42458 l -5.93594,6.57888 6.3903,0 6.39029,0 0,3.89858 0,3.8986 -12.94972,0 c -7.12235,0 -13.24109,-0.2924 -13.5972,-0.64977 z m 23.63323,-3.24879 c 0,-1.76364 -0.64749,-1.94929 -6.7986,-1.94929 -4.50266,0 -6.7986,-0.3811 -6.7986,-1.12845 0,-0.62064 3.05937,-4.52857 6.7986,-8.68429 3.73923,-4.15572 6.7986,-8.25312 6.7986,-9.10536 0,-1.31786 -1.52453,-1.54951 -10.1979,-1.54951 -8.41732,0 -10.19791,0.25526 -10.19791,1.46198 0,1.13792 1.29836,1.46197 5.85785,1.46197 8.38172,0 8.39126,1.38598 0.0711,10.32647 -3.79511,4.07806 -6.9002,8.24741 -6.9002,9.26522 0,1.70549 0.83749,1.85056 10.68352,1.85056 10.03603,0 10.68352,-0.11813 10.68352,-1.9493 z m 67.20177,-9.01549 c -1.72673,-7.10275 -3.13077,-13.46233 -3.12008,-14.1324 0.011,-0.68774 1.23597,-1.2183 2.81288,-1.2183 2.76566,0 2.82362,0.12093 5.82737,12.1575 3.81078,15.27055 3.82775,16.10729 0.32664,16.10729 -2.66807,0 -2.7528,-0.18716 -5.84681,-12.91409 z m 3.12861,-2.10893 c -1.50124,-6.17694 -2.91039,-11.04932 -3.13143,-10.82751 -0.22103,0.22182 0.82641,5.45717 2.32766,11.63411 1.50124,6.17695 2.91038,11.04932 3.13142,10.82751 0.22104,-0.22182 -0.8264,-5.45717 -2.32765,-11.63411 z m 195.72302,13.01015 c -2.42565,-2.43423 -2.39797,-6.23824 0.0631,-8.70826 2.32356,-2.33168 2.42195,-2.92394 0.48561,-2.92394 -2.35523,0 -1.67061,-3.58835 1.10225,-5.77715 3.52061,-2.77907 13.65791,-2.87297 17.00078,-0.15748 2.04677,1.66269 2.32901,2.80647 2.62989,10.65757 l 0.33712,8.795 -9.86992,0 c -8.46407,0 -10.1376,-0.26861 -11.74906,-1.88574 z m 9.29,-0.91108 c 1.7213,-0.74225 1.63836,-0.84544 -0.72843,-0.90614 -2.30492,-0.0592 -2.67088,-0.46906 -2.67088,-2.99245 0,-1.64836 0.52971,-2.95751 1.21404,-3.00089 0.77203,-0.049 0.82554,-0.23804 0.14714,-0.51934 -0.58682,-0.2433 -2.22576,-2.4e-4 -3.64211,0.54017 -3.36298,1.28308 -3.60598,5.55104 -0.38995,6.84828 2.69847,1.08845 3.60608,1.09299 6.07019,0.0304 z m 9.22667,-5.6616 c 0,-8.87969 -1.10749,-10.29691 -8.10131,-10.36629 -4.08013,-0.0404 -5.85263,0.39757 -7.15893,1.76924 -1.68227,1.76638 -1.64565,1.8024 1.17742,1.15924 7.24469,-1.65045 7.90163,-1.66058 9.15811,-0.14134 1.56542,1.89286 0.0806,4.13217 -3.15844,4.765 -1.39255,0.27204 -1.00085,0.45843 1.14712,0.54584 3.05238,0.12421 3.21923,0.30473 2.59901,2.81301 -0.3645,1.47415 -1.10652,2.83956 -1.64905,3.03425 -1.0803,0.38768 2.81948,2.80804 4.77204,2.96174 0.86177,0.0678 1.21403,-1.83048 1.21403,-6.54069 z m -7.29102,0.79952 c 0.34023,-0.55248 -0.0495,-0.71588 -0.91392,-0.38305 -1.68256,0.64794 -1.99044,1.34654 -0.59342,1.34654 0.50271,0 1.18091,-0.43357 1.50734,-0.96349 z m 36.42789,-6.37954 0,-14.09922 4.85615,0 4.85614,0 0,3.41127 c 0,3.3102 0.11121,3.41126 3.754,3.41126 7.70855,0 11.90824,7.77338 8.55322,15.83138 -1.97946,4.75413 -3.75885,5.47651 -13.57982,5.51309 l -8.43969,0.0314 0,-14.09921 z m 6.79861,10.7543 c 0,-1.8914 1.11953,-1.84532 4.65636,0.19173 2.69594,1.55271 3.02421,1.55317 5.37507,0.008 2.88649,-1.89794 4.32129,-7.3978 2.9505,-11.30939 -1.18626,-3.38491 -5.43286,-5.44304 -8.18309,-3.96597 -3.25012,1.74511 -4.79884,0.48684 -4.79884,-3.89922 0,-3.27942 -0.32119,-3.92918 -1.94246,-3.92918 -1.83883,0 -1.94246,0.64976 -1.94246,12.1831 0,11.53333 0.10363,12.1831 1.94246,12.1831 1.07923,0 1.94246,-0.64977 1.94246,-1.46197 z m 1.37225,-3.89149 c -3.0281,-4.63768 0.94005,-10.70107 5.42635,-8.29161 1.4145,0.75963 1.94246,2.04073 1.94246,4.7126 0,6.09267 -4.34858,8.20474 -7.36881,3.57901 z m 4.94073,-3.41837 c 0,-1.25079 -0.54602,-2.45684 -1.21345,-2.68012 -1.48899,-0.49804 -2.60746,2.12092 -1.80357,4.22315 0.85439,2.23437 3.01702,1.12831 3.01702,-1.54303 z m 39.44171,9.41597 c -3.01158,-1.74643 -4.88547,-5.21634 -4.9286,-9.12645 -0.0767,-6.95277 4.3684,-11.01065 12.06121,-11.01065 6.83376,0 11.21381,2.83656 11.21381,7.26205 0,1.68439 -6.53307,2.66732 -8.70046,1.30903 -3.6661,-2.29761 -6.87164,2.21583 -3.54275,4.98829 1.04504,0.87034 1.70751,0.77282 2.90358,-0.42743 1.01008,-1.01363 2.82113,-1.44952 5.20181,-1.25194 3.09676,0.257 3.6962,0.68143 3.94105,2.79058 0.46269,3.9861 -2.79821,6.14801 -9.8133,6.50577 -3.8619,0.19697 -6.84609,-0.17506 -8.33635,-1.03925 z m 12.06471,-2.05637 c 1.85242,-0.77674 3.36803,-1.87322 3.36803,-2.43662 0,-1.30433 -3.57277,-1.34498 -4.37054,-0.0497 -0.69821,1.13381 -5.30436,1.27864 -6.96439,0.21897 -2.10339,-1.34272 -2.58201,-5.91922 -0.89003,-8.51058 1.64118,-2.51366 6.63291,-3.43828 7.85442,-1.45487 0.97793,1.58778 4.39161,1.18905 3.76857,-0.44018 -0.75222,-1.96726 -6.73567,-3.77706 -9.89032,-2.99151 -10.36301,2.58056 -8.70202,16.52293 2.0253,16.99981 0.95191,0.0422 3.24643,-0.55856 5.09896,-1.33528 z m 34.33838,0.8085 c -1.89797,-2.02744 -2.3191,-3.51058 -2.3191,-8.1681 0,-4.72878 0.41054,-6.12935 2.42807,-8.28467 2.02919,-2.16765 3.10629,-2.53971 6.5558,-2.26446 l 4.12772,0.32937 0,-3.71536 0,-3.71535 4.61334,0.29707 4.61334,0.29705 0,13.64509 0,13.64506 -8.85003,0.20579 c -8.3518,0.1942 -8.98057,0.0663 -11.16914,-2.27149 z m 9.39286,-0.82725 c 2.44846,-1.8584 4.31332,-1.8718 4.31332,-0.031 0,0.81221 0.86333,1.46197 1.94246,1.46197 1.83892,0 1.94246,-0.64976 1.94246,-12.18309 l 0,-12.18311 -2.42808,0 c -2.23926,0 -2.42807,0.3498 -2.42807,4.49959 0,4.87199 0.41229,4.6906 -6.01531,2.64726 -0.98715,-0.31382 -2.63766,0.47339 -4.12772,1.96872 -3.4128,3.4248 -3.45952,9.48598 -0.099,12.85831 2.74596,2.75566 4.25836,2.96637 6.89991,0.96134 z m -3.88706,-3.65912 c -1.99306,-2.85557 -1.90778,-4.92438 0.31653,-7.68097 1.61369,-1.99983 2.12679,-2.1294 4.37053,-1.10351 2.09649,0.95859 2.54209,1.8153 2.54209,4.88692 0,5.98423 -4.19425,8.24559 -7.22915,3.89756 z m 4.80652,-1.74117 c 0.79194,-1.28596 -0.35431,-4.8645 -1.55814,-4.8645 -1.28591,0 -2.17507,2.60819 -1.49531,4.38591 0.64198,1.67883 2.16701,1.91786 3.05345,0.47859 z m -283.56803,-3.831 c -0.31021,-0.50369 1.071,-4.23171 3.06934,-8.2845 3.5806,-7.2617 3.68753,-7.36872 7.36053,-7.36872 3.69815,0 3.75331,0.0574 7.07123,7.36385 1.83921,4.05011 3.34403,7.77814 3.34403,8.28451 0,0.50636 -1.88233,0.92065 -4.18298,0.92065 -3.673,0 -4.30517,-0.32682 -5.18481,-2.68028 l -1.00182,-2.68028 -1.28407,2.68028 c -1.06543,2.22405 -1.90904,2.68028 -4.95575,2.68028 -2.01944,0 -3.9255,-0.41211 -4.2357,-0.91579 z m 7.47053,-5.11485 c 0.74562,-2.24474 1.88205,-4.25741 2.52539,-4.47261 0.64704,-0.21643 2.05075,1.60738 3.14125,4.08133 1.08438,2.45995 2.6026,4.47263 3.37385,4.47263 1.0468,0 0.61314,-1.60605 -1.71072,-6.33522 -1.71218,-3.48437 -3.66862,-6.33521 -4.34751,-6.33521 -0.67889,0 -2.55181,2.61904 -4.16211,5.8201 -3.36223,6.68405 -3.39989,6.85033 -1.55173,6.85033 0.75678,0 1.98597,-1.83661 2.73158,-4.08135 z m 83.47248,-5.97161 c -3.2172,-3.43654 -2.77053,-5.54141 1.17577,-5.54141 3.38036,0 6.42468,2.9857 6.42468,6.30093 0,2.37413 -5.14858,1.85964 -7.60045,-0.75952 z m 4.06682,-1.15549 c -0.30749,-0.80409 -1.00289,-1.46198 -1.54532,-1.46198 -0.56846,0 -0.47405,0.6193 0.2228,1.46198 0.665,0.80407 1.3604,1.46197 1.54532,1.46197 0.18493,0 0.0845,-0.6579 -0.2228,-1.46197 z m -80.44738,-26.02558 c -1.05165,-0.61203 -4.19882,-1.00649 -6.99363,-0.87657 -9.87269,0.45892 -15.16678,-4.43945 -15.16678,-14.03306 0,-9.25801 4.95301,-14.1324 14.36027,-14.1324 10.4378,0 14.58883,4.85502 13.86245,16.21351 -0.25329,3.96051 -0.0359,7.50539 0.49232,8.0357 0.52009,0.5219 0.66335,2.07751 0.31837,3.45689 -0.69016,2.75956 -3.49109,3.30399 -6.873,1.33593 z m 4.34023,-2.37543 c 0,-0.34294 -0.73309,-1.1615 -1.62905,-1.81898 -1.52084,-1.11597 -1.51356,-1.43992 0.10966,-4.87274 4.67724,-9.89111 -3.74312,-20.25603 -13.96013,-17.18416 -5.76689,1.73388 -8.31556,5.20275 -8.31556,11.31787 0,3.80123 0.51695,5.76152 1.94246,7.36586 3.01818,3.3968 7.8033,5.02853 12.6204,4.3036 2.43225,-0.36601 4.95386,-0.19324 5.98841,0.41029 2.05551,1.19915 3.24381,1.37436 3.24381,0.47826 z m -16.84594,-6.03208 c -1.05465,-1.16948 -1.60738,-3.49651 -1.60738,-6.76727 0,-4.04637 0.4064,-5.27054 2.15857,-6.50213 1.1872,-0.83447 3.0567,-1.51724 4.15438,-1.51724 1.09778,0 2.9673,0.68277 4.15444,1.51724 1.78113,1.2519 2.15855,2.44507 2.15855,6.82254 0,4.65553 -0.23785,5.3053 -1.94246,5.3053 -1.07913,0 -1.94245,0.64977 -1.94245,1.46196 0,2.10523 -5.155,1.87368 -7.13365,-0.3204 z m 6.49701,-4.67799 c 2.87784,0.72485 3.26274,-0.38009 1.63195,-4.68463 -2.18944,-5.77892 -8.93354,-1.34163 -7.38307,4.85769 0.60565,2.4216 0.75621,2.49258 1.91457,0.9028 0.91509,-1.25579 1.95935,-1.54863 3.83655,-1.07586 z m -334.437343,-1.82413 0,-14.1324 4.856145,0 4.856145,0 0.03652,3.65493 0.03652,3.65493 3.120034,-3.65497 c 2.987481,-3.49971 3.377886,-3.65498 9.190207,-3.65493 7.321483,5e-5 7.657179,0.97326 2.185265,6.33526 -2.136704,2.09377 -3.884916,4.21054 -3.884916,4.70395 0,0.49338 1.966739,4.14795 4.37053,8.12126 2.403792,3.97331 4.370531,7.64723 4.370531,8.16428 -1e-5,0.51704 -2.753764,0.94008 -6.119462,0.94008 l -6.119461,0 -2.168172,-4.47846 c -1.809341,-3.73728 -2.403947,-4.28208 -3.592829,-3.29192 -0.783568,0.65258 -1.424666,2.66789 -1.424666,4.47845 l 0,3.29193 -4.856146,0 -4.856145,0 0,-14.13239 z m 7.802145,9.01549 c 0.03448,-3.38252 2.806512,-7.55353 5.020001,-7.55353 0.737901,0 2.520573,2.41225 3.961488,5.36056 2.310982,4.7286 2.96459,5.36057 5.544086,5.36057 1.608327,0 2.924235,-0.21156 2.924235,-0.47016 0,-0.25858 -1.748212,-3.33645 -3.884916,-6.8397 -2.136704,-3.50324 -3.884916,-7.11087 -3.884916,-8.01692 0,-0.90605 1.618388,-3.31058 3.596412,-5.3434 l 3.596413,-3.69602 -3.372758,0 c -2.886949,0 -3.926834,0.70194 -7.219369,4.87324 -2.115628,2.68029 -4.401542,4.87324 -5.0798,4.87324 -0.832343,0 -1.233189,-1.58403 -1.233189,-4.87324 0,-4.76494 -0.06478,-4.87324 -2.913687,-4.87324 l -2.913687,0 0,12.18311 0,12.18309 2.913687,0 c 2.633128,0 2.916805,-0.30501 2.946,-3.1676 z m 46.040141,3.84705 c -0.267068,-0.69843 -0.362618,-6.94835 -0.21233,-13.88875 l 0.273256,-12.61887 5.098952,-0.29459 5.098953,-0.2946 0,9.79741 0,9.79742 6.312988,0 6.312992,0 0,4.38591 0,4.38592 -11.199614,0 c -8.306203,0 -11.325065,-0.32807 -11.685197,-1.26985 z m 19.971121,-2.58011 c 0,-1.63019 -0.794695,-1.94225 -5.584567,-2.19296 l -5.584567,-0.29229 -0.276781,-9.99015 -0.276781,-9.99014 -2.879713,0 -2.879714,0 0,12.18311 0,12.18309 8.741062,0 c 8.019014,0 8.741061,-0.157 8.741061,-1.90066 z m 27.640696,2.63658 c -0.27895,-0.72948 -0.38421,-7.00482 -0.23392,-13.94522 l 0.27325,-12.61887 6.41436,-0.28496 6.41434,-0.28495 1.28653,6.08375 1.28654,6.08375 1.53092,-5.79879 1.53092,-5.7988 6.30786,0 6.30786,0 0,13.64508 0,13.64507 -4.12772,0.2997 -4.12773,0.2997 -0.0858,-6.14759 -0.0858,-6.14759 -1.43824,6.09155 -1.43825,6.09155 -4.25939,0 c -4.14366,0 -4.27939,-0.0994 -4.99528,-3.65493 l -0.73588,-3.65494 -0.52216,3.41127 c -0.49303,3.2209 -0.75302,3.42803 -4.65878,3.71141 -2.81447,0.20421 -4.2987,-0.12378 -4.64378,-1.02619 z m 6.35232,-9.99507 c 0,-7.47206 0.27395,-9.25916 1.41941,-9.25916 1.39099,0 1.79922,1.1115 4.6537,12.67043 0.99816,4.04195 1.798,5.43067 3.25162,5.64556 1.68351,0.24889 2.21098,-0.89366 4.1621,-9.01548 1.50869,-6.2802 2.67792,-9.30051 3.60039,-9.30051 1.07815,0 1.36613,1.95183 1.36613,9.25916 0,8.60938 0.13631,9.25915 1.94246,9.25915 1.83886,0 1.94246,-0.64977 1.94246,-12.18309 l 0,-12.18311 -3.84749,0 c -3.63079,0 -3.9006,0.20584 -4.79076,3.65493 -0.5188,2.01021 -1.4266,5.51895 -2.01733,7.79719 -1.63953,6.32317 -3.43065,5.22164 -5.54684,-3.41127 l -1.8516,-7.55352 -4.08458,-0.2997 -4.08459,-0.29971 0,12.23913 c 0,11.58938 0.10313,12.23915 1.94246,12.23915 1.80615,0 1.94246,-0.64977 1.94246,-9.25915 z m 53.4176,-2.92394 0,-14.1324 4.75489,0 c 4.67325,0 4.81085,0.0877 8.01264,5.10857 l 3.25775,5.10855 0.29356,-5.10855 0.29356,-5.10857 4.80539,0 4.80539,0 0,14.1324 0,14.13239 -4.75489,0 c -4.67325,0 -4.81085,-0.0877 -8.01264,-5.10857 l -3.25775,-5.10856 -0.29356,5.10856 -0.29357,5.10857 -4.80538,0 -4.80539,0 0,-14.13239 z m 6.7986,5.36056 c 0,-9.19379 1.86223,-9.19379 7.76983,0 3.66007,5.69604 4.8047,6.80339 7.04141,6.81211 l 2.67088,0.0105 0,-12.18309 0,-12.18311 -2.42807,0 c -2.3587,0 -2.42807,0.19493 -2.42807,6.82254 0,9.19378 -1.86223,9.19378 -7.76983,0 -3.66007,-5.69604 -4.8047,-6.8034 -7.04141,-6.81212 l -2.67088,-0.0105 0,12.18311 0,12.18309 2.42807,0 c 2.3587,0 2.42807,-0.19493 2.42807,-6.82253 z m 52.21577,7.24613 c -1.46227,-0.79622 -3.38218,-2.8517 -4.26647,-4.56776 -2.04219,-3.96304 -2.07006,-12.06072 -0.055,-15.97118 4.17788,-8.10756 21.34366,-8.28898 25.47627,-0.26923 1.84545,3.58124 1.81208,12.88646 -0.0592,16.51788 -0.81031,1.57248 -2.75534,3.52436 -4.3223,4.33751 -3.63043,1.88399 -13.27642,1.85682 -16.77328,-0.0473 z m 17.22711,-4.38066 c 2.52061,-2.51133 2.91368,-3.61302 2.91368,-8.16627 0,-4.2125 -0.46479,-5.75978 -2.32808,-7.75015 -5.09681,-5.44439 -13.53755,-5.46465 -18.61151,-0.0447 -1.90315,2.03296 -2.3699,3.55923 -2.3699,7.74957 0,4.42479 0.42638,5.66465 2.80466,8.1558 3.19863,3.35039 5.29553,4.00981 10.79254,3.39394 2.62647,-0.29426 4.82876,-1.37561 6.79861,-3.33822 z m -13.44668,-1.72391 c -1.05465,-1.16948 -1.60737,-3.49651 -1.60737,-6.76727 0,-4.04637 0.4064,-5.27054 2.15856,-6.50213 1.1872,-0.83447 3.0567,-1.51724 4.15443,-1.51724 1.09772,0 2.96722,0.68277 4.15442,1.51724 2.88101,2.02504 3.13469,10.93923 0.38244,13.43875 -2.35746,2.14098 -7.23968,2.05151 -9.24248,-0.16935 z m 8.2143,-3.82184 c 1.59777,-4.14755 0.0156,-7.55353 -3.50868,-7.55353 -2.24201,0 -3.06865,0.57566 -3.79245,2.64101 -2.18774,6.2427 4.94093,11.03917 7.30113,4.91252 z m 37.22201,10.18226 c -0.26707,-0.69843 -0.36262,-6.94835 -0.21233,-13.88875 l 0.27325,-12.61887 9.29645,-0.27686 c 8.22725,-0.24502 9.59561,-0.0407 11.89756,1.77638 2.19766,1.73477 2.60111,2.80499 2.60111,6.90002 0,6.59092 -2.89881,9.63145 -9.18254,9.63145 l -4.41467,0 0,4.87324 0,4.87324 -4.88662,0 c -3.11914,0 -5.06227,-0.45931 -5.37221,-1.26985 z m 8.31637,-5.55268 0,-4.87325 3.44753,0 c 7.3189,0 11.76414,-4.92807 9.31365,-10.32524 -1.42692,-3.14276 -4.736,-4.29448 -12.33879,-4.29448 l -6.24976,0 0,12.18311 0,12.18309 2.91368,0 c 2.84894,0 2.91369,-0.10829 2.91369,-4.87323 z m 0,-12.18311 c 0,-3.98898 0.21256,-4.38592 2.34864,-4.38592 4.18065,0 5.42119,1.00365 5.42119,4.38592 0,3.38229 -1.24054,4.38591 -5.42119,4.38591 -2.13608,0 -2.34864,-0.39692 -2.34864,-4.38591 z m 5.15025,0.0134 c 0.10533,-0.52871 -0.57333,-1.10912 -1.50814,-1.28978 -1.06311,-0.20545 -1.69965,0.27258 -1.69965,1.27643 0,1.69569 2.87027,1.70763 3.20779,0.0134 z m 91.00139,4.8599 0,-14.1324 10.24209,0 c 9.57933,0 10.39633,0.1548 12.62598,2.39232 2.90368,2.9139 3.18194,8.09854 0.60595,11.29092 -1.74054,2.15706 -1.72043,2.30801 0.95365,7.17417 3.85898,7.02225 3.71223,7.40777 -2.81783,7.40506 l -5.58456,-0.002 -2.91369,-5.60192 -2.91369,-5.6019 -0.29127,5.60422 -0.29127,5.60423 -4.80768,0 -4.80768,0 0,-14.13239 z m 7.76983,6.82252 c 0,-5.0114 0.15219,-5.36056 2.33542,-5.36056 1.81785,0 3.00343,1.18793 5.35001,5.36056 2.57784,4.58377 3.42582,5.36057 5.85175,5.36057 l 2.83706,0 -2.44274,-4.38591 c -1.34359,-2.41226 -2.84249,-4.38592 -3.33092,-4.38592 -1.81805,0 -0.8037,-2.75532 1.59495,-4.33255 2.04007,-1.34136 2.43001,-2.27065 2.18526,-5.20659 -0.39577,-4.74767 -3.07199,-6.02252 -12.68114,-6.04086 l -7.52702,-0.0144 0,12.18312 0,12.18309 2.91368,0 c 2.88426,0 2.91369,-0.0542 2.91369,-5.36057 z m 0,-12.18309 0,-4.01068 4.02885,0.2997 c 4.66491,0.34703 6.82531,2.64428 5.094,5.41661 -0.67112,1.07461 -2.55569,1.81652 -5.094,2.00534 l -4.02885,0.29971 0,-4.01068 z m 5.26241,1.35769 c 2.36436,-0.91052 1.82076,-2.33234 -0.89188,-2.33234 -1.51075,0 -2.42807,0.55231 -2.42807,1.46197 0,1.57305 0.88955,1.80626 3.31995,0.87037 z m 42.21913,16.67365 c -2.80734,-1.53116 -5.2829,-6.45342 -4.40287,-8.75468 0.33789,-0.88376 1.78123,-1.47948 3.58442,-1.47948 l 3.01867,0 -2.98818,-2.52325 c -4.00738,-3.38381 -4.02176,-7.31066 -0.0418,-11.3049 2.81725,-2.82718 3.2441,-2.94023 9.71734,-2.57316 7.42563,0.42107 10.3569,2.20783 10.85825,6.61872 0.22474,1.97761 -0.24048,2.50217 -2.64087,2.97753 -2.7648,0.54755 -2.80142,0.61521 -0.71784,1.32351 3.00226,1.02055 5.36925,5.87778 4.59294,9.42494 -0.34022,1.55455 -1.93119,3.93479 -3.53546,5.28942 -2.44634,2.06571 -3.88385,2.45667 -8.91249,2.42394 -3.29761,-0.0214 -7.13717,-0.66163 -8.53244,-1.42259 z m 16.37677,-3.97067 c 4.29477,-4.86138 2.0424,-8.55876 -6.81142,-11.18128 -4.3446,-1.2869 -5.08614,-1.85525 -5.08614,-3.89858 0,-1.95937 0.54205,-2.44517 2.99644,-2.68551 1.82397,-0.17863 3.48564,0.29807 4.2467,1.21831 0.68763,0.83145 2.30472,1.51174 3.59355,1.51174 2.00976,0 2.20129,-0.26635 1.34534,-1.87123 -3.18709,-5.97616 -17.52379,-4.04657 -17.52379,2.35855 0,2.94529 2.68186,5.10709 8.47864,6.83461 5.25328,1.56555 6.69099,3.37477 5.08098,6.39374 -1.34729,2.52621 -6.26258,2.48511 -8.44318,-0.0705 -1.62458,-1.90415 -6.08767,-2.74325 -6.08767,-1.14459 0,1.2592 4.16104,4.79317 6.31299,5.36169 3.9767,1.05053 9.66645,-0.30136 11.89756,-2.8269 z m -5.58457,-3.33954 c 0,-0.53607 -0.11208,-0.97465 -0.24922,-0.97465 -0.13704,0 -1.72092,-0.42358 -3.51973,-0.94127 -3.20923,-0.92364 -3.23808,-0.90539 -1.5427,0.97463 1.80581,2.00242 5.31165,2.62369 5.31165,0.94129 z m -1.45684,-11.69581 c -0.33012,-0.53606 -1.01144,-0.97465 -1.51415,-0.97465 -0.50261,0 -0.91392,0.43859 -0.91392,0.97465 0,0.53606 0.68141,0.97465 1.51424,0.97465 0.83273,0 1.24405,-0.43859 0.91383,-0.97465 z m 44.19092,10.77206 0,-9.79741 -3.88492,0 -3.88491,0 0,-4.38591 0,-4.38592 13.11159,0 13.11159,0 0,4.38592 0,4.38591 -3.84966,0 -3.84976,0 -0.27796,9.50281 -0.27807,9.50283 -5.09895,0.29459 -5.09895,0.2946 0,-9.79742 z m 7.97874,-2.2439 0.27671,-9.99012 3.64211,-0.30251 c 2.85327,-0.23698 3.6421,-0.71197 3.6421,-2.19296 0,-1.75627 -0.75823,-1.89046 -10.68352,-1.89046 -10.036,0 -10.68351,0.11815 -10.68351,1.94929 0,1.6155 0.64751,1.9493 3.78109,1.9493 4.69715,0 4.95997,0.62417 4.95997,11.7755 0,8.58893 0.0282,8.69211 2.39417,8.69211 2.37087,0 2.39671,-0.0967 2.67088,-9.99015 z m 42.03956,10.80819 c -4.62247,-2.551 -5.29738,-4.60213 -5.32011,-16.16874 l -0.0214,-10.96479 4.85614,0 4.85615,0 0,8.20479 c 0,9.74774 0.46395,11.28817 3.3993,11.28817 2.93544,0 3.3993,-1.54043 3.3993,-11.28817 l 0,-8.20479 4.85615,0 4.85614,0 0,10.18795 c 0,11.29759 -0.81476,14.06414 -4.84595,16.45378 -3.15134,1.86812 -12.99446,2.17 -16.03547,0.4918 z m 15.93068,-4.17711 c 2.2988,-2.30545 2.55258,-3.34998 2.85929,-11.76856 l 0.33654,-9.23857 -2.97226,0 -2.97225,0 -0.27796,9.48159 c -0.2735,9.3288 -0.32041,9.4965 -2.90981,10.40812 -1.78434,0.62824 -3.4261,0.56335 -5.09895,-0.20152 -2.39058,-1.09308 -2.46721,-1.41599 -2.46721,-10.40814 l 0,-9.28005 -3.00741,0 -3.00741,0 0.33653,9.18245 c 0.29564,8.06575 0.61702,9.48176 2.64252,11.64386 4.05294,4.32616 12.31499,4.41652 16.53838,0.18082 z m 39.06992,3.1642 c -4.66132,-12.53017 -8.86723,-24.49312 -8.86723,-25.22175 0,-0.49438 2.38088,-0.89887 5.29068,-0.89887 l 5.29067,0 2.32852,7.55352 2.32852,7.55352 2.24277,-7.55352 2.24286,-7.55352 5.19209,0 c 3.5311,0 5.17704,0.38973 5.14518,1.21831 -0.0253,0.67006 -2.13107,6.92 -4.67851,13.88873 l -4.63169,12.67043 -5.52493,0.29245 c -5.00688,0.26505 -5.60312,0.0823 -6.35893,-1.9493 z m 10.35942,-2.48541 c 0.5298,-1.47416 2.53063,-6.98484 4.44629,-12.24598 l 3.48302,-9.56568 -2.60775,0.30653 c -2.38185,0.27999 -2.8459,1.08724 -5.35934,9.32203 -1.65828,5.43325 -3.26197,9.0155 -4.03585,9.0155 -0.78358,0 -2.34668,-3.61025 -4.00904,-9.25917 -2.60415,-8.84951 -2.84541,-9.25915 -5.45306,-9.25915 l -2.72828,0 2.99294,8.04085 c 1.64614,4.42247 3.64298,9.90486 4.43735,12.18309 1.3064,3.74639 1.75152,4.14226 4.65743,4.14226 2.62407,0 3.38959,-0.49128 4.17629,-2.68028 z M 102.19095,136.77908 c -5.119796,-2.53234 -7.409626,-6.64012 -7.777116,-13.95164 -0.5433,-10.80936 5.05517,-17.56547 14.555676,-17.56547 9.13313,0 13.82143,4.62848 13.82143,13.64506 0,3.56714 -0.59438,6.25729 -1.77659,8.04085 -1.62871,2.45719 -1.6404,2.68028 -0.14049,2.68028 3.28404,0 1.20711,4.13834 -3.26509,6.50584 -5.02023,2.6576 -10.85536,2.90174 -15.41782,0.64508 z m 9.986,-4.22698 c 1.43974,-0.62085 0.68567,-0.8515 -2.91368,-0.89121 -3.47526,-0.0383 -4.44188,0.21508 -3.39931,0.89121 1.74498,1.13167 3.68871,1.13167 6.31299,0 z m 0.60288,-4.24412 c -0.78131,-0.94475 -0.81513,-2.78419 -0.11892,-6.46824 1.22481,-6.48114 1.22517,-8.07747 0.002,-7.31862 -0.53418,0.3313 -0.97123,2.52159 -0.97123,4.86731 0,2.34572 -0.41516,5.36076 -0.92258,6.70006 -0.65505,1.72897 -0.58464,2.57296 0.24281,2.91046 2.18894,0.8928 2.86091,0.63023 1.76827,-0.69097 z m -4.01915,-5.43913 c 1.18984,-4.43426 0.44116,-7.47772 -1.4517,-5.90125 -2.45862,2.04765 -2.83606,11.68905 -0.39841,10.17719 0.46369,-0.28758 1.29624,-2.21175 1.85011,-4.27594 z m -5.5759,-2.2553 c 0.19057,-2.00972 0.0348,-3.32549 -0.3461,-2.92394 -0.76922,0.81092 -1.19293,4.55607 -0.85447,7.55263 0.26196,2.31933 0.70299,0.61898 1.20057,-4.62869 z m 14.27237,-2.13645 c -0.0717,-4.60643 -1.20856,-2.60065 -2.1772,3.84121 -0.53685,3.57032 -0.46727,3.73927 0.82628,2.00667 0.77686,-1.04056 1.38478,-3.67211 1.35092,-5.84788 z m -5.2802,-7.36725 c 0.35779,-0.58096 -0.6979,-0.93541 -2.61355,-0.87748 -3.02159,0.0913 -3.06858,0.14382 -0.78575,0.87748 1.33544,0.42919 2.51154,0.82407 2.61356,0.8775 0.10202,0.0534 0.4556,-0.34144 0.78574,-0.8775 z m -57.788124,16.11561 c 0,-5.67111 0.304325,-6.64912 3.042938,-9.77921 1.673622,-1.91286 2.801666,-3.72005 2.506762,-4.01599 -0.294894,-0.29594 -1.032242,0.39212 -1.638551,1.52899 -0.930835,1.74542 -1.660957,1.9675 -4.692027,1.42724 -4.900996,-0.87356 -5.548291,-1.70792 -4.081629,-5.26122 1.778437,-4.30864 4.527054,-5.8633 10.36621,-5.8633 6.748235,0 10.424453,2.92903 10.424453,8.30572 0,2.98915 -0.615516,4.20074 -3.259279,6.41561 -3.036363,2.54381 -3.247237,3.1003 -3.083225,8.137 l 0.176055,5.40646 -4.880854,0 -4.880853,0 0,-6.3013 z m 6.798603,2.4027 c 0,-1.42948 -0.647489,-1.94928 -2.428072,-1.94928 -1.780584,0 -2.428073,0.5198 -2.428073,1.94928 0,1.4295 0.647489,1.9493 2.428073,1.9493 1.780583,0 2.428072,-0.5198 2.428072,-1.9493 z m -0.709939,-4.5379 c -0.657551,-0.26697 -1.96871,-0.28323 -2.913687,-0.0361 -0.944967,0.24711 -0.406974,0.46554 1.195554,0.48542 1.602528,0.0198 2.375694,-0.18232 1.718133,-0.44931 z m 3.546695,-6.22088 c 2.179021,-2.16495 3.961848,-4.47961 3.961848,-5.14371 0,-2.19574 -2.828161,-5.3069 -5.416894,-5.95891 -4.540962,-1.14373 -11.094,2.23241 -11.094,5.71564 0,1.2458 3.988634,0.43959 4.504929,-0.91057 0.344932,-0.90205 1.821142,-1.46198 3.85443,-1.46198 2.796518,0 3.295389,0.34127 3.295389,2.25428 0,1.23985 -1.311159,3.51486 -2.913687,5.05558 -1.602528,1.54073 -2.913687,3.15785 -2.913687,3.59362 0,1.91913 3.071803,0.48234 6.721672,-3.14395 z m 80.698285,13.43907 c 0.005,-0.67008 2.148,-6.92 4.76193,-13.88874 l 4.75258,-12.67043 5.56216,0 5.56215,0 4.68815,12.67043 c 2.57849,6.96874 4.70697,13.21866 4.72997,13.88874 0.0285,0.83028 -1.63863,1.21831 -5.23449,1.21831 -4.42333,0 -5.37599,-0.31514 -5.89283,-1.9493 -0.46296,-1.4638 -1.4695,-1.9493 -4.04129,-1.9493 -2.60797,0 -3.54593,0.46491 -3.93274,1.9493 -0.42861,1.64477 -1.32478,1.9493 -5.73645,1.9493 -3.54028,0 -5.22546,-0.39339 -5.21914,-1.21831 z m 8.4503,-2.68029 c 0.43649,-1.67502 1.32478,-1.94928 6.31299,-1.94928 4.98823,0 5.8765,0.27426 6.31299,1.94928 0.35888,1.37718 1.32478,1.9493 3.29093,1.9493 l 2.78297,0 -3.47261,-9.50282 c -1.90993,-5.22655 -3.91157,-10.70894 -4.44809,-12.18309 -0.79549,-2.18569 -1.56771,-2.68029 -4.18477,-2.68029 -2.61707,0 -3.38929,0.4946 -4.18478,2.68029 -0.53651,1.47415 -2.53816,6.95654 -4.44809,12.18309 l -3.47261,9.50282 2.50156,0 c 1.68475,0 2.66741,-0.63649 3.00951,-1.9493 z m 2.78444,-6.70083 c -0.86949,-1.41183 2.43451,-9.86818 3.85561,-9.86818 0.72594,0 1.77505,1.64471 2.33136,3.65493 1.71276,6.18907 1.42482,7.0662 -2.31968,7.0662 -1.83809,0 -3.57837,-0.38383 -3.86729,-0.85295 z m 4.29558,-3.04565 c 0,-1.07211 -0.16756,-1.94928 -0.37234,-1.94928 -0.20478,0 -0.60092,0.87717 -0.8803,1.94928 -0.27939,1.07212 -0.11183,1.9493 0.37234,1.9493 0.48417,0 0.8803,-0.87718 0.8803,-1.9493 z m 39.82039,-0.48732 0,-14.13239 10.02861,0 c 9.22702,0 10.1974,0.18031 12.14036,2.25577 2.25921,2.41329 2.89789,8.26124 1.09937,10.06609 -0.70238,0.70486 -0.55366,1.39801 0.48561,2.26358 0.92535,0.77067 1.49801,2.85159 1.49801,5.44343 0,3.37196 -0.50249,4.59249 -2.55906,6.21588 -2.21508,1.74851 -3.91216,2.02004 -12.62597,2.02004 l -10.06693,0 0,-14.1324 z m 21.50374,9.33178 c 2.41377,-2.99137 2.27648,-4.60116 -0.62231,-7.29712 -2.92943,-2.72446 -2.95144,-2.97143 -0.48562,-5.44592 2.51464,-2.5235 2.44849,-3.47939 -0.44147,-6.37952 -2.13601,-2.14353 -3.19655,-2.39232 -10.19791,-2.39232 l -7.81397,0 0,12.30232 0,12.30232 8.87776,-0.42595 c 7.80836,-0.37463 9.09528,-0.69551 10.68352,-2.66381 z m -13.73391,-4.45854 0,-3.51807 4.61334,0.29707 c 4.41266,0.28413 4.61334,0.42425 4.61334,3.221 0,2.79675 -0.20068,2.93687 -4.61334,3.22101 l -4.61334,0.29705 0,-3.51806 z m 6.859,0 c 0,-0.53605 -1.10622,-1.11343 -2.45827,-1.28304 -1.752,-0.21981 -2.45827,0.14882 -2.45827,1.28304 0,1.13422 0.70627,1.50284 2.45827,1.28304 1.35205,-0.16961 2.45827,-0.74698 2.45827,-1.28304 z m -6.859,-10.17776 c 0,-3.81494 0.11151,-3.9541 3.1565,-3.93972 4.39666,0.0208 5.79501,1.17589 5.41953,4.47676 -0.29102,2.55836 -0.70113,2.84582 -4.4483,3.11788 l -4.12773,0.29971 0,-3.95463 z m 5.25675,1.30381 c 1.97673,-0.76122 1.01359,-2.3345 -1.42915,-2.3345 -1.03683,0 -1.88514,0.65789 -1.88514,1.46197 0,1.57204 0.88961,1.80622 3.31429,0.87253 z M 257.56,132.20819 c -3.98441,-2.21878 -5.9983,-6.45046 -6.00528,-12.61857 -0.0113,-9.97175 4.1206,-14.32765 13.59081,-14.32765 7.63901,0 12.62597,3.39015 12.62597,8.58319 0,2.66027 -7.64784,3.98223 -9.36942,1.61952 -1.73879,-2.38631 -5.47945,-1.41946 -6.56723,1.69745 -1.99443,5.71482 3.32325,10.19997 6.57303,5.54395 1.22073,-1.74898 2.02051,-1.94874 5.46445,-1.36484 2.21894,0.37621 4.25414,1.25861 4.52268,1.96087 0.79186,2.07082 -2.37183,7.1499 -5.44786,8.74617 -3.44894,1.7898 -12.29519,1.88174 -15.38715,0.15991 z m 12.23265,-1.6783 c 1.64699,-0.57618 3.69449,-2.11961 4.55,-3.42987 1.48005,-2.2668 1.44786,-2.42287 -0.66434,-3.21971 -1.65656,-0.62495 -2.44517,-0.43476 -3.10802,0.74958 -1.92778,3.44441 -6.50134,4.13746 -9.47601,1.43594 -2.35788,-2.14136 -2.46656,-10.62561 -0.16875,-13.1736 1.97868,-2.19411 5.96693,-2.29869 8.90508,-0.23348 2.51252,1.76604 5.26398,1.17903 4.45009,-0.94939 -0.2994,-0.78298 -2.06807,-2.1492 -3.9304,-3.03602 -6.61507,-3.15011 -14.90975,0.62003 -16.40614,7.45702 -2.18894,10.00123 6.3205,17.73268 15.84849,14.39953 z m 35.17327,-11.04419 0,-14.22373 9.21135,0 c 8.69939,0 9.3792,0.1505 12.23141,2.70792 5.45358,4.88991 5.72451,17.25325 0.49324,22.50692 -2.35618,2.36627 -3.29434,2.5883 -12.24385,2.89762 l -9.69215,0.33498 0,-14.22371 z m 16.96319,10.70657 c 6.35537,-2.6648 8.31704,-12.71394 3.69466,-18.92689 -2.28913,-3.07686 -4.69506,-3.82973 -12.64521,-3.95696 l -6.07018,-0.0972 0,12.1831 0,12.1831 5.85857,0 c 3.2222,0 7.34519,-0.62334 9.16216,-1.38519 z m -9.19336,-10.79791 0,-8.28451 3.32993,0 c 4.69199,0 6.38236,2.1005 6.38236,7.93088 0,6.91035 -1.17242,8.63815 -5.86154,8.63815 l -3.85075,0 0,-8.28452 z m 6.59733,4.87292 c 0.15638,-0.13501 0.53338,-1.78552 0.83776,-3.66779 0.4312,-2.66658 0.10033,-3.87699 -1.49838,-5.48133 -3.27823,-3.28977 -3.99425,-2.51143 -3.99425,4.34189 0,6.18792 0.0727,6.37845 2.18526,5.7268 1.2019,-0.37075 2.31322,-0.78455 2.46961,-0.91957 z m 37.53266,7.98962 c -0.26709,-0.69842 -0.36256,-6.94835 -0.21231,-13.88873 l 0.2732,-12.61889 11.89756,-0.27365 11.89755,-0.27366 0,3.92859 0,3.92859 -6.7986,0 c -3.88492,0 -6.7986,0.4177 -6.7986,0.97465 0,0.55072 2.7714,0.97465 6.37165,0.97465 l 6.37165,0 -0.30147,3.65493 -0.30147,3.65493 -6.07018,0.29017 c -4.5268,0.21639 -6.07018,0.65003 -6.07018,1.70563 0,1.10271 1.5022,1.41547 6.7986,1.41547 l 6.7986,0 0,3.89858 0,3.8986 -11.68514,0 c -8.70523,0 -11.80908,-0.32385 -12.17086,-1.26986 z m 21.91355,-2.62874 c 0,-1.76363 -0.64743,-1.94928 -6.79861,-1.94928 l -6.7986,0 0,-3.8986 0,-3.8986 5.82737,0 c 4.53244,0 5.82738,-0.32487 5.82738,-1.46197 0,-1.13878 -1.30174,-1.46197 -5.88886,-1.46197 l -5.88895,0 0.30439,-3.16761 c 0.30428,-3.16745 0.30457,-3.16761 6.37447,-3.45777 4.52689,-0.21639 6.07018,-0.65004 6.07018,-1.70564 0,-1.13818 -1.80736,-1.41546 -9.22668,-1.41546 l -9.22668,0 0,12.1831 0,12.1831 9.7123,0 c 9.06486,0 9.71229,-0.12995 9.71229,-1.9493 z m 29.13687,-10.2338 0,-14.13239 10.68352,0 10.68352,0 0,3.89858 0,3.8986 -5.82738,0 c -3.2374,0 -5.82737,0.43317 -5.82737,0.97465 0,0.53606 2.17701,0.97465 4.83769,0.97465 4.34897,0 4.89917,0.24589 5.44646,2.43444 1.06417,4.25471 -0.0515,5.36274 -5.39751,5.36274 l -4.88664,0 0,5.36056 0,5.36057 -4.85615,0 -4.85614,0 0,-14.1324 z m 7.76983,6.82253 0,-5.36056 4.85614,0 c 3.66911,0 4.85615,-0.35738 4.85615,-1.46197 0,-1.1046 -1.18704,-1.46196 -4.85615,-1.46196 l -4.85614,0 0,-3.36264 0,-3.36263 5.57515,-0.29231 c 4.39782,-0.23056 5.64342,-0.65248 5.89866,-1.99792 0.28874,-1.52295 -0.62052,-1.70564 -8.48884,-1.70564 l -8.81235,0 0,12.1831 0,12.1831 2.91369,0 c 2.88426,0 2.91369,-0.0542 2.91369,-5.36057 z m 45.02559,5.31589 c -3.76341,-2.41957 -5.59292,-6.63712 -5.50201,-12.68398 0.13539,-9.004 5.30233,-13.58683 15.31871,-13.58683 7.72545,0 12.07199,2.6819 12.14163,7.49177 0.0243,1.68248 -0.63363,2.21396 -3.12561,2.52429 -3.10774,0.38704 -3.10026,0.39551 0.48561,0.54908 l 3.64211,0.15599 0,6.87017 0,6.87019 -4.12772,1.88025 c -5.67441,2.58477 -14.7553,2.55059 -18.83272,-0.0709 z m 17.09218,-2.20033 c 2.11077,-1.01094 2.5116,-1.92376 2.76256,-6.29128 l 0.29361,-5.10877 -4.90695,0 c -3.61316,0 -4.90694,0.36838 -4.90694,1.39722 0,0.79844 1.1411,1.5294 2.66263,1.70564 3.2271,0.37379 4.17415,3.49247 1.62797,5.36087 -2.43438,1.78628 -8.15599,1.60251 -10.28424,-0.3303 -2.35786,-2.14136 -2.46654,-10.62561 -0.1688,-13.1736 1.83037,-2.02961 7.17534,-2.38151 9.93188,-0.65391 0.99036,0.62066 2.57366,0.83082 3.51838,0.467 1.62768,-0.62677 1.62981,-0.75887 0.0418,-2.51943 -3.76361,-4.17333 -13.5535,-3.35285 -18.11342,1.51809 -1.85816,1.98487 -2.32814,3.54017 -2.32814,7.7049 0,4.42479 0.42637,5.66466 2.80472,8.1558 1.5425,1.61575 3.72777,3.13832 4.85614,3.38347 2.89456,0.6289 9.28874,-0.21733 12.20845,-1.6157 z m -4.81526,-4.57753 c 1.13527,-0.73622 0.86731,-0.94808 -1.21403,-0.95972 -2.46605,-0.0138 -2.67088,-0.31389 -2.67088,-3.91352 0,-3.59572 0.20755,-3.90099 2.67088,-3.92958 2.55831,-0.0297 2.59143,-0.0913 0.78562,-1.46197 -2.46303,-1.86952 -3.07831,-1.81046 -5.39896,0.51832 -4.73474,4.75148 0.36839,13.28676 5.82737,9.74647 z m 37.87793,-5.36056 0,-14.13239 4.85615,0 4.85615,0 0,4.38591 c 0,4.36271 0.0175,4.38592 3.3993,4.38592 3.38133,0 3.3993,-0.0231 3.3993,-4.38592 l 0,-4.38591 4.85614,0 4.85615,0 0,14.13239 0,14.1324 -4.85615,0 -4.85614,0 0,-5.36057 0,-5.36056 -3.3993,0 -3.3993,0 0,5.36056 0,5.36057 -4.85615,0 -4.85615,0 0,-14.1324 z m 7.76984,6.82253 0,-5.36056 5.34176,0 5.34176,0 0,5.36056 c 0,5.30642 0.0291,5.36057 2.91368,5.36057 l 2.91369,0 0,-12.1831 0,-12.1831 -2.86046,0 c -2.72343,0 -2.87465,0.22176 -3.1565,4.62958 l -0.29603,4.62958 -4.85614,0 -4.85615,0 -0.29593,-4.62958 c -0.28185,-4.40782 -0.43307,-4.62958 -3.1565,-4.62958 l -2.86056,0 0,12.1831 0,12.1831 2.91369,0 c 2.88426,0 2.91369,-0.0542 2.91369,-5.36057 z m 46.61899,-6.82253 0,-14.23427 5.09895,0.2946 5.09896,0.29459 0,13.64508 0,13.64508 -5.09896,0.29459 -5.09895,0.2946 0,-14.23427 z m 7.76983,0 0,-12.1831 -2.91368,0 -2.91369,0 0,12.1831 0,12.1831 2.91369,0 2.91368,0 0,-12.1831 z m 32.53618,12.95519 c -2.99994,-1.72652 -4.30585,-3.90117 -4.33965,-7.22639 -0.0282,-2.81126 0.26961,-3.09125 3.91298,-3.67591 4.338,-0.69611 5.76843,-0.22414 5.76843,1.90323 0,2.20698 1.65283,1.64073 2.30161,-0.78851 0.32206,-1.20612 0.59158,-5.59205 0.59886,-9.74648 l 0.0136,-7.55352 4.85615,0 4.85614,0 0,11.28342 c 0,11.17163 -0.0282,11.31165 -2.8389,14.13239 -2.43866,2.44719 -3.56868,2.84479 -8.01264,2.81934 -2.84551,-0.0163 -6.04784,-0.5327 -7.1162,-1.14757 z m 11.17214,-2.23563 c 3.50419,-1.81845 4.84031,-6.18337 4.84779,-15.83646 l 0.01,-7.0662 -2.91369,0 -2.91369,0 0,9.06423 c 0,5.75042 -0.42608,9.49181 -1.16547,10.2338 -1.76871,1.77495 -4.47009,1.40103 -5.63313,-0.77971 -1.043,-1.95585 -4.30342,-2.66058 -5.24386,-1.13349 -0.73804,1.19829 2.21256,5.04023 4.61936,6.01492 3.10366,1.25688 5.26386,1.129 8.39734,-0.49709 z M 1.942458,127.32207 c 0,-4.21536 0.04613,-4.27299 4.904114,-6.12536 l 4.904114,-1.86997 -4.904114,-1.76971 c -4.880989,-1.76136 -4.904114,-1.78993 -4.904114,-6.05773 0,-2.79945 0.421455,-4.27581 1.214036,-4.25282 0.66772,0.0194 5.584567,1.92607 10.926327,4.23714 l 9.71229,4.20194 0,3.7088 0,3.70881 -9.71229,4.20193 c -5.34176,2.31106 -10.258607,4.21778 -10.926327,4.23715 -0.791211,0.023 -1.214036,-1.44686 -1.214036,-4.22018 z m 19.404515,-7.92771 c -0.0101,-1.53504 -1.866984,-2.71033 -8.737448,-5.53031 -7.39992,-3.03729 -8.724609,-3.3325 -8.724609,-1.94433 0,1.09866 1.915584,2.38208 5.827374,3.90424 3.205056,1.24717 5.827375,2.85385 5.827375,3.5704 0,0.71656 -2.622319,2.32323 -5.827375,3.5704 -3.935196,1.53127 -5.827374,2.8029 -5.827374,3.91626 0,1.40441 1.29461,1.11632 8.737458,-1.94434 6.913607,-2.84302 8.734768,-3.99992 8.724599,-5.54232 z M 522.01294,86.672081 c -0.43356,-1.37105 -0.0641,-2.458 1.14857,-3.38027 1.70704,-1.29797 1.70859,-1.3608 0.035,-1.39039 -1.48181,-0.0262 -1.70703,-0.74683 -1.45684,-4.66058 l 0.29603,-4.629575 4.61333,-0.297063 4.61334,-0.297063 0,6.218721 c 0,5.24016 -0.35362,6.55217 -2.24781,8.3379 -2.87037,2.70607 -6.16206,2.75231 -7.00149,0.0984 z m 7.30685,-8.3209 c 0,-2.87375 -0.31565,-3.3033 -2.42808,-3.3033 -1.94245,0 -2.42807,0.48734 -2.42807,2.43662 0,1.51613 0.5504,2.43663 1.45684,2.43663 1.5227,0 1.98432,2.8234 0.72843,4.45526 -0.40064,0.52059 0.0359,0.12113 0.97123,-0.8877 0.9348,-1.00882 1.69965,-3.3207 1.69965,-5.13751 z M 4.871967,79.112301 C -0.347341,73.874628 0.023028,59.9275 5.496156,55.607188 c 3.770068,-2.97597 11.932957,-2.792171 15.57392,0.350679 2.636547,2.275842 2.725035,2.65839 2.725035,11.780159 0,9.121775 -0.08848,9.504315 -2.725035,11.780175 -2.169065,1.87231 -3.819086,2.35222 -8.087356,2.35222 -4.591505,0 -5.757378,-0.39646 -8.110753,-2.75812 z m 12.108292,-0.15963 C 21.523348,77.219321 23.673873,68.462453 21.261738,61.518642 19.201781,55.588621 10.483699,53.85407 6.262864,58.534455 3.731928,61.340954 3.167702,70.828927 5.287147,74.941911 c 2.315449,4.49334 6.587614,5.95871 11.693112,4.01076 z m -7.073723,-3.12507 c -1.546876,-1.552317 -1.546876,-14.62682 0,-16.179152 1.784264,-1.790545 5.446352,-1.391661 6.57019,0.715644 0.552969,1.036871 1.005397,4.355147 1.005397,7.373933 0,3.018797 -0.452428,6.337071 -1.005397,7.373935 -1.123838,2.1073 -4.785926,2.50619 -6.57019,0.71564 z m 5.037066,-4.855108 c 0.682492,-3.424484 -0.137895,-9.307478 -1.407767,-10.095061 -2.076576,-1.287911 -3.805897,7.618685 -2.262789,11.654128 0.988284,2.584491 3.016443,1.723044 3.670556,-1.559067 z m 43.33014,3.049869 c 0,-7.199403 -0.161408,-7.886773 -1.699651,-7.237922 -0.934808,0.394313 -2.68302,0.930964 -3.884916,1.192551 -1.984444,0.431895 -2.185265,0.112932 -2.185265,-3.470927 0,-3.08129 0.422892,-4.081231 1.92889,-4.560893 1.060893,-0.337901 3.23933,-1.929413 4.840975,-3.536696 2.381783,-2.390168 3.578066,-2.867072 6.569364,-2.618918 l 3.657279,0.303399 0,13.64507 0,13.645075 -4.613338,0.29706 -4.613338,0.29707 0,-7.954869 z m 6.798604,-6.284336 c 0,-11.285555 -0.134875,-12.183098 -1.830758,-12.183098 -1.006912,0 -2.50274,1.029198 -3.32407,2.287109 -0.82132,1.257899 -2.838319,2.846185 -4.482231,3.529512 -1.643903,0.683326 -2.988919,1.894003 -2.988919,2.690407 0,1.002406 0.523046,1.227384 1.699651,0.731074 5.948564,-2.509192 6.070181,-2.374349 6.070181,6.729974 0,8.308237 0.02603,8.398127 2.428073,8.398127 l 2.428073,0 0,-12.183105 z m 32.050558,12.054475 c 0,-3.27201 3.514326,-8.149918 8.768766,-12.171111 4.80786,-3.679432 6.17209,-6.218575 3.34112,-6.218575 -0.81804,0 -1.7389,0.657887 -2.04637,1.461972 -0.63385,1.657593 -8.585326,2.099001 -9.551476,0.530228 -0.94182,-1.529263 2.07239,-7.594672 4.393756,-8.841401 1.29585,-0.695958 4.67529,-0.997261 8.46744,-0.754953 7.42128,0.474215 9.95007,2.62769 9.91466,8.443121 -0.0241,3.95021 -2.00523,7.056012 -6.32289,9.912081 l -2.88219,1.906539 4.61334,0.007 4.61334,0.007 0,3.898589 0,3.89859 -11.65475,0 c -11.247726,0 -11.654746,-0.0726 -11.654746,-2.07791 z m 21.367036,-1.82067 c 0,-1.71301 -0.64749,-1.9493 -5.34176,-1.9493 -6.68039,0 -6.85909,-1.23836 -0.90004,-6.237043 5.08511,-4.265575 6.4084,-6.949122 4.9791,-10.097274 -2.17706,-4.795189 -13.70315,-4.952936 -16.22614,-0.222082 -1.502776,2.817852 2.61691,3.779898 4.51865,1.055211 1.65683,-2.373774 5.40215,-2.685253 7.13235,-0.59315 1.97237,2.384923 0.34902,5.757166 -4.72791,9.821468 -4.20476,3.366092 -7.8876,7.84422 -7.8876,9.59087 0,0.31932 4.152,0.5806 9.22668,0.5806 8.57918,0 9.22667,-0.1368 9.22667,-1.9493 z m 32.34422,2.91245 c -2.43527,-0.98416 -5.72626,-6.662064 -4.50403,-7.77074 0.44609,-0.404654 2.4494,-0.984463 4.45181,-1.288485 2.95089,-0.448025 3.83149,-0.195066 4.6475,1.335034 1.42927,2.680021 4.06835,2.460991 3.67686,-0.305162 -0.19945,-1.409291 -1.09126,-2.304253 -2.49562,-2.504407 -1.76244,-0.251187 -2.18526,-0.934277 -2.18526,-3.53036 0,-3.001729 -0.26212,-3.260977 -3.88492,-3.842325 -4.4433,-0.713013 -5.09884,-2.778594 -2.07223,-6.529458 1.4685,-1.819912 2.98989,-2.320969 8.01264,-2.638889 5.25403,-0.332569 6.60744,-0.06988 8.87083,1.721891 2.80767,2.222617 3.71213,7.360609 1.65849,9.421483 -0.70237,0.704836 -0.55366,1.398006 0.48562,2.263561 1.80493,1.503238 1.97051,8.595107 0.25308,10.839877 -0.65073,0.85052 -2.13779,2.05665 -3.30457,2.68028 -2.46208,1.31593 -10.50355,1.40319 -13.6102,0.1477 z m 14.03197,-4.39586 c 2.70362,-3.122554 2.79388,-5.915836 0.24281,-7.514609 -2.05882,-1.290279 -2.59542,-4.127039 -0.97123,-5.134377 1.40998,-0.874483 1.19046,-4.939292 -0.33538,-6.210076 -2.36979,-1.973682 -6.96686,-2.296651 -10.65835,-0.748813 -3.62193,1.518667 -4.81364,3.547621 -2.0837,3.547621 0.82006,0 2.53897,-0.689057 3.8198,-1.53124 1.80785,-1.188729 2.77783,-1.290064 4.33635,-0.453026 2.727,1.464575 2.52804,4.521059 -0.42048,6.459811 -3.06218,2.013486 -3.10311,3.321638 -0.10391,3.321638 3.7773,0 5.05895,6.893061 1.6246,8.737541 -2.68428,1.44165 -3.68782,1.27079 -5.96632,-1.01571 -1.99384,-2.000859 -4.78105,-1.947329 -4.78105,0.0918 0,1.77089 6.09755,3.92809 9.71229,3.43603 2.03401,-0.27688 4.27699,-1.47641 5.58457,-2.9866 z m -6.7379,-15.02469 c 0.2428,-0.730987 -0.12141,-1.096479 -0.84983,-0.852818 -0.70111,0.23453 -1.46595,1.002065 -1.69965,1.705634 -0.24281,0.730987 0.1214,1.096479 0.84983,0.852818 0.7011,-0.234521 1.46594,-1.002055 1.69965,-1.705634 z m 48.74355,17.97007 c 0,-2.34914 -0.22661,-2.43662 -6.31298,-2.43662 l -6.31299,0 0.0116,-4.142253 c 0.0103,-3.683496 0.7209,-4.978793 6.41588,-11.695775 6.1897,-7.300503 6.54717,-7.553521 10.67187,-7.553521 l 4.26764,0 0,7.797183 c 0,6.281069 0.28327,7.797183 1.45684,7.797183 1.05216,0 1.45684,1.082942 1.45684,3.898591 0,2.815662 -0.40468,3.898592 -1.45684,3.898592 -0.90648,0 -1.45684,0.92051 -1.45684,2.43662 0,2.23808 -0.35612,2.43662 -4.37053,2.43662 -4.01441,0 -4.37054,-0.19854 -4.37054,-2.43662 z m 5.82738,-1.9493 c 0,-1.78685 0.51798,-2.43662 1.94246,-2.43662 1.12986,0 1.94246,-0.649757 1.94246,-1.553209 0,-0.854274 -0.87411,-1.782606 -1.94246,-2.062974 -1.73524,-0.455365 -1.94246,-1.329429 -1.94246,-8.19326 0,-6.816669 -0.20203,-7.68351 -1.79069,-7.68351 -2.29498,0 -14.7202,14.67848 -14.7202,17.389638 0,1.808495 0.66965,2.043695 6.55579,2.302445 5.95674,0.26186 6.58416,0.48858 6.86615,2.48115 0.43017,3.03954 3.08895,2.8298 3.08895,-0.24366 z m -12.62598,-7.294193 c 0,-0.586181 1.72145,-2.912822 3.82543,-5.170302 4.4389,-4.762724 6.20428,-4.18813 5.71031,1.858595 -0.30812,3.77181 -0.32316,3.784276 -4.9224,4.080432 -2.87156,0.18491 -4.61334,-0.10532 -4.61334,-0.768725 z m 6.7986,-2.571618 c 0,-1.295102 -0.26367,-1.36171 -1.45684,-0.367988 -0.80126,0.667332 -1.45684,1.378922 -1.45684,1.581318 0,0.202385 0.65558,0.367978 1.45684,0.367978 0.80127,0 1.45684,-0.71159 1.45684,-1.581308 z m 41.09105,13.267741 c -2.71618,-1.09795 -5.53873,-5.38 -4.80723,-7.292988 0.77884,-2.036757 8.9368,-2.043071 9.71518,-0.008 0.78335,2.048598 3.21271,1.824308 3.77903,-0.348876 0.76856,-2.949368 -0.98621,-5.203981 -3.14704,-4.043479 -2.21853,1.191508 -6.81676,1.256176 -8.60165,0.120973 -1.07891,-0.686199 -1.09791,-2.121164 -0.10955,-8.269584 l 1.19588,-7.439332 9.57904,0 9.57904,0 0,3.898591 c 0,3.539688 -0.23039,3.898592 -2.5026,3.898592 l -2.50258,0 2.87294,2.425938 c 3.30465,2.790466 4.23216,6.17917 2.9584,10.808595 -1.33884,4.86594 -4.95943,7.24532 -10.91224,7.1713 -2.73239,-0.034 -5.92587,-0.44898 -7.09662,-0.92222 z m 13.45892,-3.61777 c 2.87106,-2.881168 3.21502,-7.215768 0.81551,-10.277 -1.78164,-2.272958 -2.808,-2.664902 -6.97843,-2.664902 -4.05962,0 -4.7895,-0.261684 -4.30004,-1.54168 0.32425,-0.847933 0.58953,-1.944412 0.58953,-2.436618 0,-0.492217 2.62232,-0.894942 5.82737,-0.894942 5.17989,0 5.82738,-0.216586 5.82738,-1.949296 0,-1.774453 -0.64749,-1.949295 -7.21877,-1.949295 -7.97516,0 -7.59852,-0.326361 -8.83873,7.659222 l -0.65972,4.247953 4.98803,-0.688442 c 6.0005,-0.828187 7.84427,0.326526 7.84427,4.912684 0,3.363526 -2.06399,6.285486 -4.4399,6.285486 -0.76311,0 -2.29537,-0.9111 -3.40502,-2.02465 -1.99385,-2.000859 -4.78105,-1.947329 -4.78105,0.0918 0,1.76068 6.0954,3.929 9.65423,3.43432 1.83768,-0.25545 4.12158,-1.24755 5.07534,-2.20465 z m 34.69438,3.14014 c -3.27105,-1.78405 -5.23303,-6.534585 -5.23303,-12.670775 0,-9.886808 3.93769,-14.132394 13.1075,-14.132394 3.95902,0 5.42522,0.478367 7.33245,2.392321 2.9576,2.967998 3.04167,5.004905 0.23699,5.74093 l -2.14694,0.563415 2.07494,2.23054 c 4.45052,4.784264 3.55461,13.166433 -1.69864,15.892563 -3.49018,1.81119 -10.33724,1.80288 -13.67327,-0.0166 z m 13.46313,-3.95225 c 2.72309,-3.105328 2.7795,-6.23556 0.17231,-9.561731 -2.05996,-2.628022 -6.96025,-3.581997 -8.18495,-1.593413 -0.34093,0.55359 0.48246,0.974648 1.90596,0.974648 4.77889,0 5.88008,8.365154 1.41674,10.762266 -3.10654,1.66842 -6.72201,-1.14416 -6.72201,-5.229239 0,-1.756628 0.52447,-3.720183 1.16548,-4.36345 0.90648,-0.909668 0.90648,-1.169577 0,-1.169577 -1.90468,0 -1.32828,-5.397902 0.78093,-7.313437 1.62173,-1.472819 2.35838,-1.5793 4.41623,-0.638384 2.97191,1.358864 5.29211,1.459797 5.29211,0.230231 0,-1.414614 -6.34495,-3.15093 -9.03678,-2.472946 -6.31724,1.591105 -9.45149,11.078824 -6.04187,18.289358 2.80646,5.935004 10.51059,7.018064 14.83585,2.085674 z m -4.77118,-4.298721 c 0.32515,-2.231953 -1.46424,-4.246218 -2.95228,-3.323325 -0.94896,0.588551 -1.02705,4.66072 -0.10708,5.583916 1.18393,1.1881 2.7226,0.0512 3.05936,-2.260591 z m -1.27331,-11.541429 c -0.29903,-0.300084 -1.08271,-6.14e-4 -1.74154,0.665479 -0.95205,0.962572 -0.8405,1.07453 0.5437,0.545598 0.95784,-0.366009 1.49687,-0.910993 1.19784,-1.211077 z m 40.28027,19.4074 c 0,-2.73466 3.78789,-14.547171 4.88256,-15.226054 2.15603,-1.337236 0.67637,-2.420284 -3.30674,-2.420284 -4.91976,0 -6.71148,-1.58737 -6.25928,-5.545278 l 0.31293,-2.739229 11.41194,-0.274587 11.41194,-0.274598 0,3.810182 c 0,2.281524 -0.61488,4.32229 -1.5326,5.086608 -2.45692,2.046245 -6.2248,10.295509 -6.87426,15.04997 l -0.59818,4.37989 -4.72415,0 c -3.98904,0 -4.72416,-0.28732 -4.72416,-1.84662 z m 7.80489,-5.21958 c 1.45656,-6.211291 3.91581,-11.305397 6.66021,-13.796118 1.12526,-1.021189 2.04579,-2.665907 2.04579,-3.65493 0,-1.621698 -0.90576,-1.798245 -9.22667,-1.798245 -8.57916,0 -9.22668,0.136791 -9.22668,1.949295 0,1.730556 0.64752,1.949296 5.77007,1.949296 3.17359,0 6.02269,0.41021 6.33145,0.911579 0.30885,0.501358 -0.76349,3.008124 -2.38282,5.57058 -4.69327,7.426458 -6.10815,13.985453 -3.01693,13.985453 1.42655,0 2.11806,-1.16176 3.04558,-5.11691 z m 39.61712,5.19821 c -3.24964,-2.57134 -4.30886,-6.965069 -2.54326,-10.55034 0.92869,-1.885944 1.05456,-3.44809 0.42141,-5.232115 -2.22324,-6.26451 2.22402,-10.614344 10.85193,-10.614344 7.65047,0 12.04081,4.560815 9.88022,10.263783 -0.71269,1.881109 -0.72036,3.036877 -0.0243,3.734929 1.70101,1.707037 1.18218,8.960147 -0.81836,11.439337 -1.51822,1.88159 -2.94885,2.32563 -8.49825,2.63777 -5.66567,0.31869 -7.06443,0.0653 -9.26893,-1.67902 z m 12.66978,-1.15847 c 5.10915,-1.78731 6.44692,-6.223143 2.93874,-9.743718 -2.00695,-2.014012 -2.01151,-2.10561 -0.2665,-5.35728 1.75627,-3.272749 1.7519,-3.331775 -0.41317,-5.504468 -1.60243,-1.608033 -3.32461,-2.196244 -6.43011,-2.196244 -6.57105,0 -10.75947,5.048179 -6.87368,8.284508 1.93148,1.608588 1.83853,2.540926 -0.48562,4.873239 -5.90303,5.923823 2.37437,12.847003 11.53034,9.643963 z m -6.917,-1.92485 c -2.15457,-1.25938 -2.27598,-7.000427 -0.18473,-8.742083 1.0802,-0.89964 2.26462,-0.998752 4.12773,-0.345406 3.18689,1.117541 4.12325,6.048669 1.62467,8.555979 -1.80697,1.81337 -3.15446,1.94202 -5.56767,0.53151 z m 3.95251,-4.627841 c 0.20173,-1.375696 -0.20318,-2.116624 -1.15673,-2.116624 -1.9141,0 -2.71148,1.375228 -1.95081,3.364513 0.81865,2.140962 2.72274,1.376352 3.10754,-1.247889 z m -5.00464,-7.639622 c -1.37866,-1.383541 -0.56341,-5.174689 1.33165,-6.192475 4.00166,-2.149167 8.50428,2.099071 5.75201,5.427035 -1.19015,1.439135 -5.90469,1.948565 -7.08366,0.76544 z m 5.17985,-3.306347 c 0,-0.504419 -0.65558,-0.917134 -1.45684,-0.917134 -1.50191,0 -1.92954,1.150055 -0.83574,2.247684 0.77601,0.778676 2.29258,-0.101549 2.29258,-1.33055 z m 38.31946,18.13281 c -1.31116,-1.31577 -2.38398,-3.28944 -2.38398,-4.38593 0,-1.596463 0.62877,-1.996446 3.15649,-2.007958 l 3.1565,-0.01433 -2.40885,-1.223143 c -3.39512,-1.723849 -5.03446,-5.360329 -4.48785,-9.955044 0.68093,-5.723445 4.06207,-8.286037 10.93293,-8.286037 4.82885,0 5.72559,0.342102 8.68687,3.313802 3.18369,3.194828 3.30218,3.583265 3.30218,10.818592 0,7.235328 -0.11849,7.623768 -3.30218,10.818588 -2.97546,2.98599 -3.84452,3.3138 -8.78516,3.3138 -4.52651,0 -5.89895,-0.41733 -7.86695,-2.39231 z m 14.25579,-2.11062 c 6.48781,-5.892002 3.59608,-19.865491 -4.42346,-21.37525 -7.9263,-1.492213 -13.64344,6.90237 -8.3314,12.233109 2.03201,2.039081 7.22255,2.65189 8.25545,0.974648 0.33546,-0.544555 -0.41073,-0.974648 -1.69081,-0.974648 -2.97808,0 -4.62577,-1.725478 -4.60722,-4.824507 0.0185,-3.168912 0.90722,-4.49186 3.57752,-5.327786 3.97864,-1.245512 7.56189,4.405565 5.185,8.177276 -0.58264,0.924561 -0.53174,1.667818 0.14297,2.086234 1.6472,1.021656 0.0185,7.511224 -2.18206,8.692944 -1.46617,0.78747 -2.59998,0.62702 -4.80477,-0.67995 -2.1301,-1.26272 -3.17058,-1.42479 -3.97359,-0.61896 -0.80301,0.80582 -0.36042,1.4998 1.69014,2.65025 3.30256,1.85291 8.52855,1.37846 11.16223,-1.01336 z m -4.23611,-4.086816 c 0.23659,-0.712225 -0.20745,-0.930039 -1.15333,-0.565795 -0.84594,0.325747 -1.53804,1.020483 -1.53804,1.543868 0,1.281063 2.20741,0.478868 2.69137,-0.978073 z m 0.0311,-10.219935 c -0.16181,-1.095905 -0.84021,-2.173036 -1.50764,-2.393619 -1.45801,-0.481836 -2.61328,2.110473 -1.84087,4.13053 0.81739,2.137568 3.6998,0.642438 3.34851,-1.736911 z m 36.31659,14.180101 0.29593,-4.629575 4.61334,-0.297063 4.61333,-0.297063 0,4.926651 0,4.92663 -4.90927,0 -4.90937,0 0.29604,-4.62958 z m 7.58015,0.24366 c 0,-1.94928 -0.48562,-2.43662 -2.42808,-2.43662 -1.94245,0 -2.42807,0.48734 -2.42807,2.43662 0,1.9493 0.48562,2.43663 2.42807,2.43663 1.94246,0 2.42808,-0.48733 2.42808,-2.43663 z m 73.8134,-1.79296 -9.22667,-4.092233 0,-3.813056 0,-3.813057 9.67635,-4.233773 c 5.32195,-2.32858 10.2388,-4.017157 10.92633,-3.752395 1.6035,0.617509 1.63118,6.822839 0.0359,8.09338 -0.66772,0.531826 -2.94321,1.52661 -5.0566,2.210609 l -3.84257,1.243651 5.11692,2.266192 c 4.99163,2.210716 5.10944,2.356153 4.8138,5.941462 -0.1959,2.37439 -0.81885,3.74008 -1.75997,3.85838 -0.80126,0.10069 -5.60885,-1.65843 -10.68352,-3.90916 z m 9.71229,-0.52482 c 0,-1.344466 -1.54716,-2.411099 -5.82737,-4.017427 -3.20506,-1.202822 -5.82737,-2.737893 -5.82737,-3.411268 0,-0.673364 2.62231,-2.208435 5.82737,-3.411267 3.24905,-1.219314 5.82737,-2.781246 5.82737,-3.530097 0,-1.908108 -0.83486,-1.737095 -9.37566,1.920339 -10.2013,4.368518 -10.1238,5.641418 0.6346,10.42998 4.5405,2.02097 8.36471,3.71402 8.49826,3.76234 0.13354,0.0484 0.2428,-0.73584 0.2428,-1.7426 z m 29.13687,-3.04278 0,-3.898591 10.68352,0 10.68352,0 0,3.898591 0,3.89859 -10.68352,0 -10.68352,0 0,-3.89859 z m 19.42459,0 c 0,-1.796401 -0.64743,-1.949295 -8.25545,-1.949295 -7.60793,0 -8.25545,0.152894 -8.25545,1.949295 0,1.796421 0.64752,1.949295 8.25545,1.949295 7.60802,0 8.25545,-0.152874 8.25545,-1.949295 z M 486.26219,69.524888 c -0.35615,-0.357375 -0.64752,-2.550333 -0.64752,-4.87324 l 0,-4.223481 4.85615,0 4.85614,0 0,4.87324 0,4.873239 -4.20862,0 c -2.31473,0 -4.5,-0.292393 -4.85615,-0.649758 z m 7.12232,-4.710805 c 0,-1.949296 -0.48562,-2.43662 -2.42808,-2.43662 -1.94245,0 -2.42807,0.487324 -2.42807,2.43662 0,1.949295 0.48562,2.436619 2.42807,2.436619 1.94246,0 2.42808,-0.487324 2.42808,-2.436619 z m 28.81316,4.710805 c -0.35615,-0.357375 -0.64752,-2.550333 -0.64752,-4.87324 l 0,-4.223481 4.85614,0 4.85615,0 0,4.87324 0,4.873239 -4.20863,0 c -2.31473,0 -4.49999,-0.292393 -4.85614,-0.649758 z m 7.12231,-4.710805 c 0,-1.949296 -0.48561,-2.43662 -2.42807,-2.43662 -1.94246,0 -2.42807,0.487324 -2.42807,2.43662 0,1.949295 0.48561,2.436619 2.42807,2.436619 1.94246,0 2.42807,-0.487324 2.42807,-2.436619 z m 76.72709,-1.461972 0,-3.898592 10.68352,0 10.68352,0 0,3.898592 0,3.898591 -10.68352,0 -10.68352,0 0,-3.898591 z m 19.42459,0 c 0,-1.796403 -0.64743,-1.949296 -8.25545,-1.949296 -7.60793,0 -8.25545,0.152893 -8.25545,1.949296 0,1.796412 0.64752,1.949296 8.25545,1.949296 7.60802,0 8.25545,-0.152884 8.25545,-1.949296 z M 357.1945,37.280278 c -3.8551,-4.412288 -5.08749,-8.47545 -5.10575,-16.833038 -0.0155,-7.009001 0.36877,-9.062101 2.46109,-13.157746 2.22305,-4.351413 2.85027,-4.884131 6.07018,-5.15537 1.97509,-0.166374 3.59102,-0.01516 3.59102,0.336021 0,0.351186 -0.93238,3.719231 -2.07211,7.484546 -2.33299,7.708113 -2.10592,16.310682 0.60245,22.815434 0.84186,2.021868 1.31203,4.247544 1.04504,4.945959 -0.70152,1.834364 -4.84789,1.560234 -6.59192,-0.435806 z m 2.39262,-5.360562 c -1.9344,-5.402776 -1.87253,-18.433463 0.11344,-23.87887 2.17759,-5.971039 0.26291,-5.097316 -2.85813,1.304165 -3.56548,7.313255 -3.56636,14.613917 0,21.67143 3.07559,6.090741 4.80865,6.66054 2.74731,0.903275 z m 30.84711,5.239444 c 0,-1.004716 0.65558,-3.69141 1.45684,-5.97043 0.80127,-2.279019 1.45685,-7.103527 1.45685,-10.721124 0,-3.617602 -0.65558,-8.442108 -1.45685,-10.721126 -2.23101,-6.345802 -1.96246,-7.797183 1.44315,-7.797183 3.60326,0 7.16214,4.941693 8.77389,12.183098 2.39117,10.742536 -2.89766,24.853518 -9.31515,24.853518 -1.65848,0 -2.35873,-0.542303 -2.35873,-1.826753 z m 7.15164,-6.823286 c 3.27528,-7.323963 3.34336,-13.501127 0.223,-20.226302 -1.27532,-2.748609 -2.80083,-5.296395 -3.38988,-5.661746 -1.39848,-0.867385 -1.34185,-0.05266 0.39636,5.697218 0.79543,2.631463 1.44625,7.276616 1.44625,10.322562 0,3.045947 -0.65082,7.691099 -1.44625,10.322561 -1.71811,5.683377 -1.66896,5.271802 -0.62878,5.271802 0.46124,0 1.99092,-2.576744 3.3993,-5.726095 z m 124.42726,4.67987 c -0.43355,-1.371038 -0.0641,-2.457994 1.14858,-3.380265 1.70703,-1.297978 1.70858,-1.360803 0.035,-1.390393 -1.4818,-0.02622 -1.70703,-0.746844 -1.45684,-4.660581 l 0.29603,-4.629574 4.61334,-0.297064 4.61334,-0.297064 0,6.218719 c 0,5.240165 -0.35363,6.552187 -2.24782,8.337908 -2.87037,2.70608 -6.16206,2.752299 -7.00149,0.09832 z m 7.30685,-8.320902 c 0,-2.873748 -0.31565,-3.303296 -2.42807,-3.303296 -1.94246,0 -2.42807,0.487324 -2.42807,2.43662 0,1.516124 0.55039,2.436621 1.45684,2.436621 1.52269,0 1.98432,2.823408 0.72842,4.455271 -0.40063,0.520589 0.0359,0.121128 0.97123,-0.8877 0.93481,-1.008819 1.69965,-3.320703 1.69965,-5.137516 z m -368.09577,5.468536 c 0,-1.323592 -0.64748,-1.949296 -2.01716,-1.949296 -2.5872,0 -7.69513,-5.096581 -7.69513,-7.678043 0,-1.4905 0.83871,-2.138 3.39199,-2.618685 1.8656,-0.351219 4.07356,-0.376118 4.90659,-0.05533 0.87009,0.335059 1.2621,0.173258 0.92122,-0.380231 -0.32635,-0.529913 -1.24302,-0.963482 -2.03704,-0.963482 -2.77877,0 -6.21153,-4.578383 -6.21153,-8.284508 0,-3.994443 3.49774,-8.284506 6.75446,-8.284506 1.09264,0 1.9866,-0.438593 1.9866,-0.974648 C 161.22421,0.438592 162.31685,0 163.65229,0 c 1.33544,0 2.42807,0.383768 2.42807,0.852818 0,0.469049 1.29133,1.111991 2.86961,1.428759 3.18448,0.639137 6.39479,4.690492 5.52311,6.970054 -0.37513,0.981002 -1.94421,1.485645 -4.72013,1.518077 l -4.1582,0.04859 3.99179,1.944688 c 3.87414,1.887371 6.20992,5.081393 6.20248,8.481473 -0.007,3.230256 -3.7823,8.023847 -6.79553,8.628616 -1.99376,0.400151 -2.91313,1.16142 -2.91313,2.412136 0,1.299538 -0.70144,1.827466 -2.42807,1.827466 -1.78059,0 -2.42808,-0.51981 -2.42808,-1.949296 z m 10.31029,-7.563863 c 3.55376,-4.696907 0.042,-8.783877 -10.55309,-12.281478 -1.01661,-0.335597 -1.69965,-1.540667 -1.69965,-2.998613 0,-2.185791 0.37614,-2.426576 3.64211,-2.33147 2.00316,0.05834 4.16928,0.521326 4.8136,1.028875 1.22338,0.963696 3.19903,0.254982 3.19903,-1.147571 0,-0.447088 -1.62272,-1.462395 -3.60606,-2.256241 -2.9567,-1.183442 -4.2247,-1.229755 -7.04141,-0.257181 -6.65546,2.298038 -7.01751,8.390952 -0.68708,11.562464 1.9606,0.982247 3.56472,2.127553 3.56472,2.545124 0,0.417573 1.0414,0.559444 2.31423,0.315272 2.77424,-0.532194 3.90521,0.963245 3.11575,4.119785 -0.49558,1.981528 -1.15762,2.312099 -4.53678,2.265297 -2.42806,-0.03363 -4.15535,-0.574789 -4.47122,-1.400833 -0.65176,-1.704424 -5.47291,-1.8288 -4.95141,-0.127736 0.20543,0.67007 2.31785,2.165121 4.69427,3.32233 3.94906,1.92301 4.60466,1.985007 7.62054,0.720646 1.81487,-0.760849 3.87698,-2.146253 4.58245,-3.07867 z m 36.32237,6.345554 c 0.008,-0.670072 1.74667,-4.408666 3.86481,-8.307998 2.97288,-5.472871 3.42731,-6.862058 1.99264,-6.091546 -1.02217,0.548975 -3.41691,0.998138 -5.32165,0.998138 -4.73263,0 -7.34807,-2.775287 -7.34807,-7.797183 0,-5.198122 2.58995,-7.797183 7.76984,-7.797183 5.05181,0 7.75337,2.610654 7.81655,7.553521 l 0.0467,3.654929 2.88254,-5.604225 c 2.53276,-4.924189 3.23421,-5.604225 5.78066,-5.604225 1.59396,0 2.89812,0.449539 2.89812,0.998978 0,0.549438 -1.4969,3.981879 -3.32643,7.627645 l -3.32643,6.628666 5.02762,-0.4184 c 6.33714,-0.527374 8.68872,1.566291 8.68872,7.735747 0,5.119095 -2.68769,7.641445 -8.1423,7.641445 -4.93802,0 -7.64633,-2.653703 -7.70896,-7.553521 l -0.0467,-3.654926 -2.88254,5.604221 c -2.53276,4.924194 -3.23421,5.604226 -5.78065,5.604226 -1.6783,0 -2.89237,-0.512782 -2.88446,-1.218309 z m 23.29584,-2.680282 c 1.06835,-1.072114 1.94245,-2.82648 1.94245,-3.898593 0,-2.429651 -3.29774,-5.847883 -5.64174,-5.847883 -4.43703,0 -7.07554,5.287519 -4.33584,8.688924 1.70537,2.117266 1.72214,2.092501 1.72214,-2.544436 0,-4.344919 0.17505,-4.682516 2.42807,-4.682516 2.16322,0 2.4607,0.452973 2.72723,4.152737 0.25724,3.570797 -0.015,4.279201 -1.94246,5.055128 -1.6799,0.676259 -1.81571,0.917855 -0.54196,0.96416 0.9348,0.03402 2.57375,-0.815409 3.64211,-1.887521 z m -2.91369,-4.093522 c 0,-1.574456 -0.2872,-1.856013 -1.08085,-1.05957 -0.59446,0.596563 -0.7872,1.561465 -0.4283,2.144225 1.00463,1.63125 1.50915,1.268642 1.50915,-1.084655 z M 212.69935,13.645071 c 2.16883,-2.176453 2.42906,-4.088975 0.93706,-6.88661 -1.63277,-3.06159 -2.3939,-2.189529 -2.3939,2.742779 0,4.290133 -0.17879,4.631155 -2.42807,4.631155 -2.24928,0 -2.42808,-0.341022 -2.42808,-4.631155 0,-2.547137 -0.31241,-4.630446 -0.69425,-4.629578 -0.95294,0.0021 -2.70505,3.433819 -2.70505,5.298068 0,2.152301 3.51528,5.424637 5.82738,5.424637 1.06835,0 2.81656,-0.877183 3.88491,-1.949296 z M 209.78567,9.74648 c 0,-1.072113 -0.43706,-1.949296 -0.97123,-1.949296 -0.53418,0 -0.97123,0.877183 -0.97123,1.949296 0,1.072112 0.43705,1.949296 0.97123,1.949296 0.53417,0 0.97123,-0.877184 0.97123,-1.949296 z M 26.112347,29.970419 c -0.06099,-0.134013 -0.250169,-6.49359 -0.420464,-14.13239 l -0.309609,-13.888732 4.752904,0 4.752913,0 -0.104601,14.132394 -0.104592,14.132391 -4.227857,0 c -2.325316,0 -4.27773,-0.109649 -4.338694,-0.243663 z m 6.90944,-3.654928 c 0,-1.429478 -0.647489,-1.949297 -2.428072,-1.949297 -1.780584,0 -2.428073,0.519819 -2.428073,1.949297 0,1.429486 0.647489,1.949296 2.428073,1.949296 1.780583,0 2.428072,-0.51981 2.428072,-1.949296 z m -1.624361,-7.553519 c 0.23801,-0.402042 0.745214,-3.910774 1.127121,-7.797183 l 0.69438,-7.066197 -2.526642,0 c -2.37585,0 -2.526643,0.283574 -2.526643,4.751408 0,8.042015 1.562669,12.931479 3.231784,10.111972 z m 72.945614,8.040842 c 0.39841,-2.131136 0.25673,-3.411268 -0.37753,-3.411268 -0.55838,0 -1.01523,-1.53507 -1.01523,-3.411263 0,-2.761503 0.36999,-3.411268 1.94246,-3.411268 1.06835,0 1.94245,-0.438591 1.94245,-0.974648 0,-0.536057 -0.8741,-0.974648 -1.94245,-0.974648 -1.56531,0 -1.94246,-0.649766 -1.94246,-3.34653 0,-2.913302 0.34078,-3.386453 2.63247,-3.65493 1.88462,-0.220786 2.79224,-1.000616 3.19485,-2.745019 0.46147,-1.999406 1.23053,-2.492186 4.28602,-2.746289 3.66193,-0.304538 3.71632,-0.259608 3.28187,2.710904 -0.47266,3.231796 0.75121,2.815867 1.32983,-0.451939 0.26271,-1.483628 1.24193,-2.023272 4.09909,-2.258965 3.67855,-0.303453 3.74524,-0.250393 3.32208,2.642886 -0.27526,1.882157 0.0334,3.131695 0.85135,3.446686 2.09316,0.80605 1.58411,5.532066 -0.65929,6.120793 -2.51629,0.66034 -2.48236,1.862668 0.0715,2.532862 1.54639,0.405812 1.94097,1.167584 1.69965,3.28128 -0.24809,2.172946 -0.87003,2.817062 -2.95267,3.058024 -2.14849,0.248574 -2.75466,0.927232 -3.26459,3.65493 -0.58743,3.142333 -0.8627,3.34967 -4.44703,3.34967 l -3.82084,0 0.60229,-3.65493 c 0.44819,-2.719745 0.339,-3.28085 -0.42673,-2.192958 -0.56597,0.804084 -1.03572,2.448802 -1.0439,3.654929 -0.013,1.916159 -0.51887,2.192959 -4.00788,2.192959 l -3.993,0 0.63771,-3.411268 z m 5.41009,-2.029694 c 0.41288,-2.396679 1.00431,-2.89297 3.76344,-3.158036 l 3.27358,-0.314499 -0.67009,3.584443 c -0.51265,2.74225 -0.37,3.48426 0.60709,3.158036 0.70244,-0.234531 1.49778,-1.706004 1.76741,-3.269944 0.38367,-2.225502 1.06973,-2.910572 3.15649,-3.151943 3.06127,-0.354091 3.70248,-3.102866 0.72381,-3.102866 -1.44317,0 -1.94246,-0.649765 -1.94246,-2.527866 0,-1.708182 0.62986,-2.693158 1.94246,-3.037618 1.95891,-0.51407 2.77442,-3.206347 0.97123,-3.206347 -0.53418,0 -0.97123,-1.315774 -0.97123,-2.923944 0,-3.780095 -1.60074,-3.780095 -2.42807,0 -0.5329,2.434788 -1.11449,2.923944 -3.47648,2.923944 -2.5042,0 -2.83651,-0.34256 -2.83651,-2.923944 0,-3.780095 -1.60074,-3.780095 -2.42808,0 -0.53289,2.434788 -1.11448,2.923944 -3.47647,2.923944 -1.87386,0 -2.83651,0.496162 -2.83651,1.461971 0,0.909672 0.91726,1.461973 2.42807,1.461973 2.59467,0 2.72299,0.258286 1.81592,3.654929 -0.34447,1.289897 -1.33888,2.192958 -2.41481,2.192958 -1.00605,0 -1.82918,0.657887 -1.82918,1.461972 0,0.804084 0.70421,1.461967 1.56493,1.461967 1.27116,0 1.44162,0.659584 0.90809,3.513616 -0.50081,2.678917 -0.35344,3.412311 0.62033,3.087198 0.70244,-0.234531 1.49762,-1.706004 1.76704,-3.269944 z m 1.93821,-9.178753 c 0,-2.709846 0.2572,-2.923943 3.51258,-2.923943 3.16871,0 3.45524,0.214684 2.92695,2.192957 -0.3221,1.206127 -0.59161,2.521901 -0.5989,2.923943 -0.008,0.402043 -1.32442,0.730987 -2.92694,0.730987 -2.58995,0 -2.91369,-0.324882 -2.91369,-2.923944 z m 153.09955,12.599679 c -3.40412,-2.687105 -3.59319,-8.730789 -0.37378,-11.948373 1.75437,-1.753383 2.12762,-3.072162 1.8929,-6.688141 -0.24456,-3.767966 0.0686,-4.757771 1.91576,-6.05617 2.87952,-2.023991 11.32631,-2.044729 14.18577,-0.03482 2.82186,1.983456 2.93786,7.447202 0.21611,10.178533 -1.94246,1.949296 -1.94246,1.949296 0.89179,1.949296 4.31459,0 5.90681,0.951205 5.90681,3.52877 0,1.290062 0.54313,3.218315 1.20696,4.285009 2.20608,3.544931 -2.54182,8.264302 -6.08212,6.045564 -1.40302,-0.879289 -2.5012,-0.947212 -3.82442,-0.236547 -1.02093,0.548307 -4.44834,0.996919 -7.61648,0.996919 -4.35686,0 -6.38372,-0.492148 -8.3193,-2.020036 z m 14.47228,-1.453307 c 3.6011,-1.226907 4.75828,-1.286633 5.93533,-0.306333 1.17992,0.98269 1.62677,0.950352 2.31527,-0.16758 0.56891,-0.923762 0.35523,-1.664922 -0.64134,-2.224594 -1.02759,-0.5771 -1.30228,-1.607867 -0.87923,-3.299352 0.56123,-2.243964 0.39882,-2.405525 -1.84902,-1.839369 -2.77046,0.697791 -6.37268,-1.104348 -6.37268,-3.188167 0,-0.747682 1.09264,-2.375603 2.42808,-3.617605 2.83051,-2.632464 2.98454,-3.6029 0.90331,-5.691446 -2.26012,-2.26808 -5.91226,-2.882529 -9.14532,-1.538641 -3.45914,1.437867 -4.35759,3.775653 -2.78346,7.242644 1.07328,2.363894 0.90781,2.832657 -1.91243,5.417617 -1.69806,1.556395 -3.08738,3.257254 -3.08738,3.77969 0,2.395685 1.50537,4.356354 4.27308,5.565444 3.93061,1.717125 5.44179,1.698636 10.81579,-0.132308 z m -9.8544,-2.790983 c -0.88339,-2.310168 0.003,-5.654235 1.79853,-6.783572 1.37689,-0.866134 2.25989,-0.493229 4.75059,2.006233 4.00075,4.014834 3.2776,6.168425 -2.0713,6.168425 -2.52214,0 -4.13782,-0.501924 -4.47782,-1.391086 z m 4.95804,-2.51348 c -1.93239,-2.142785 -2.99189,-1.913751 -2.08753,0.451272 0.31631,0.827202 1.31215,1.503998 2.21297,1.503998 1.49463,0 1.48367,-0.170973 -0.12544,-1.95527 z m -1.40708,-9.19953 c -0.64059,-0.774579 -1.02189,-2.419298 -0.84734,-3.65493 0.25084,-1.775688 0.9281,-2.246604 3.23104,-2.246604 2.35124,0 2.97836,0.459814 3.24873,2.382013 0.20595,1.464213 -0.33334,2.872472 -1.39966,3.65493 -2.20392,1.617211 -2.79908,1.598172 -4.23277,-0.135409 z m 3.31345,-2.42292 c 0.30734,-0.499016 0.1146,-1.182787 -0.42829,-1.519493 -0.54289,-0.336704 -0.98707,0.07158 -0.98707,0.907302 0,1.711994 0.58279,1.96407 1.41536,0.612191 z m 317.3374,15.770679 0.29594,-4.629574 4.61334,-0.297064 4.61333,-0.297064 0,4.926639 0,4.92664 -4.90927,0 -4.90937,0 0.29603,-4.629577 z m 7.58016,0.243661 c 0,-1.949296 -0.48562,-2.43662 -2.42808,-2.43662 -1.94246,0 -2.42807,0.487324 -2.42807,2.43662 0,1.949296 0.48561,2.436621 2.42807,2.436621 1.94246,0 2.42808,-0.487325 2.42808,-2.436621 z m 27.66992,0.547362 c 0.35547,-2.111203 1.81435,-8.361131 3.24187,-13.88873 2.45128,-9.491275 2.74421,-10.067329 5.26649,-10.358578 3.34355,-0.386072 3.41979,1.002484 0.68598,12.491499 -3.85666,16.207582 -3.58617,15.594363 -6.87893,15.594363 -2.90941,0 -2.9502,-0.06764 -2.31541,-3.838554 z m 3.10172,-0.242784 c -0.31011,-0.777506 -0.5402,-0.546554 -0.58682,0.588853 -0.0418,1.027444 0.18735,1.603091 0.51009,1.279226 0.32274,-0.323866 0.35722,-1.1645 0.0767,-1.868079 z m 0.97123,-3.898592 c -0.31012,-0.777506 -0.5402,-0.546553 -0.58682,0.588852 -0.0418,1.027445 0.18735,1.603092 0.51009,1.279227 0.32274,-0.323866 0.35722,-1.1645 0.0767,-1.868079 z m 0.97123,-3.898588 c -0.31012,-0.777509 -0.5402,-0.546559 -0.58682,0.58885 -0.0418,1.027441 0.18735,1.603092 0.51009,1.279225 0.32274,-0.323867 0.35722,-1.164501 0.0767,-1.868075 z m 0.97123,-3.898591 c -0.31012,-0.777509 -0.5402,-0.546559 -0.58682,0.58885 -0.0418,1.027441 0.18735,1.603092 0.51009,1.279225 0.32274,-0.323867 0.35722,-1.164501 0.0767,-1.868075 z m 0.97123,-3.898592 c -0.31012,-0.777509 -0.5402,-0.546559 -0.58682,0.58885 -0.0418,1.027441 0.18735,1.603093 0.51009,1.279226 0.32274,-0.323868 0.35722,-1.164502 0.0767,-1.868076 z m 0.97122,-3.898592 c -0.31011,-0.777508 -0.54019,-0.546559 -0.58681,0.58885 -0.0418,1.027441 0.18735,1.603093 0.51009,1.279226 0.32274,-0.323869 0.35722,-1.164502 0.0767,-1.868076 z M 479.78711,23.87887 c 0,-3.248822 -0.16181,-3.411264 -3.39931,-3.411264 -3.3183,0 -3.3993,-0.09283 -3.3993,-3.898591 0,-3.805768 0.0806,-3.898591 3.3993,-3.898591 3.2375,0 3.39931,-0.162442 3.39931,-3.411269 0,-3.330047 0.0923,-3.411267 3.88491,-3.411267 3.79246,0 3.88492,0.08122 3.88492,3.411267 0,3.248827 0.1619,3.411269 3.3993,3.411269 3.3184,0 3.3993,0.09283 3.3993,3.898591 0,3.805768 -0.0806,3.898591 -3.3993,3.898591 -3.2374,0 -3.3993,0.162442 -3.3993,3.411264 0,3.33005 -0.0923,3.411269 -3.88492,3.411269 -3.79236,0 -3.88491,-0.08119 -3.88491,-3.411269 z m 5.82737,-1.949295 c 0,-3.248823 0.1619,-3.411264 3.3993,-3.411264 2.75188,0 3.3993,-0.371294 3.3993,-1.949296 0,-1.578002 -0.64742,-1.949296 -3.3993,-1.949296 -3.2374,0 -3.3993,-0.162442 -3.3993,-3.411268 0,-4.523146 -2.6636,-4.732851 -3.09492,-0.243662 -0.26757,2.785276 -0.6853,3.204469 -3.46088,3.47302 -2.32949,0.225399 -3.15649,0.783753 -3.15649,2.131206 0,1.347453 0.827,1.905807 3.15649,2.131206 2.77558,0.26855 3.19331,0.687744 3.46088,3.473015 0.43132,4.489189 3.09492,4.279485 3.09492,-0.243661 z m 70.89972,-2.483123 0,-3.945101 6.07018,0.290171 6.07018,0.290169 0.30147,3.654929 0.30147,3.654926 -6.37165,0 -6.37165,0 0,-3.945094 z m 9.71229,-0.01233 c 0,-1.723845 -0.51446,-1.965307 -3.63395,-1.705634 -2.53976,0.211407 -3.73107,0.816113 -3.95621,2.008131 -0.26398,1.398161 0.39112,1.705631 3.63405,1.705631 3.34734,0 3.95611,-0.309047 3.95611,-2.008126 z M 431.55577,15.051638 c -0.29583,-0.773611 -0.28631,-2.064452 0.0214,-2.868537 0.34051,-0.890546 0,-1.461971 -0.86731,-1.461971 -1.57572,0 -1.67333,-0.438002 -0.81427,-3.65493 0.34449,-1.289897 1.33893,-2.192958 2.41486,-2.192958 1.006,0 1.82912,-0.657888 1.82912,-1.461972 0,-0.974647 0.97122,-1.461971 2.91368,-1.461971 2.17565,0 2.91369,0.451651 2.91369,1.783021 0,1.222225 0.68734,1.758682 2.18526,1.705634 1.68567,-0.05969 2.25559,0.535439 2.49266,2.602894 0.22785,1.987663 -0.11654,2.680282 -1.33301,2.680282 -1.34787,0 -1.42469,0.26059 -0.43122,1.461971 2.02579,2.449485 -0.41248,4.19446 -5.92081,4.237278 -3.37084,0.02621 -5.03126,-0.394358 -5.40382,-1.368741 z m 7.25489,-5.061494 c -0.39432,-2.054405 -2.11796,-1.924866 -2.55724,0.19218 -0.18318,0.883015 0.35216,1.513454 1.28522,1.513454 1.00037,0 1.47676,-0.638783 1.27202,-1.705634 z M 61.776956,12.103386 C 61.452721,11.255458 61.187429,8.623908 61.187429,6.255498 l 0,-4.306201 9.226676,0 9.226679,0 0,2.802112 c 0,1.541162 -0.27316,4.172711 -0.60702,5.847887 -0.55454,2.782463 -0.93238,3.045775 -4.370528,3.045775 -3.237178,0 -3.772121,-0.306691 -3.825073,-2.192958 l -0.06158,-2.192958 -0.87837,2.192958 c -0.671226,1.675792 -1.662899,2.192958 -4.205062,2.192958 -2.137549,0 -3.53741,-0.551079 -3.916209,-1.541685 z m 5.59693,-2.600568 c 1.14878,-4.301774 0.726752,-5.604226 -1.815926,-5.604226 -2.637926,0 -2.723501,0.223287 -1.821054,4.751408 0.705947,3.542163 2.788388,4.030464 3.63698,0.852818 z m 9.169038,-2.024636 c 0.2579,-3.062662 0.01243,-3.57959 -1.699651,-3.57959 -1.620422,0 -2.001095,0.618038 -2.001095,3.248826 0,5.865589 3.210498,6.152536 3.700746,0.330764 z M 317.87491,12.00474 c -0.34498,-0.902183 -0.65906,-3.424085 -0.69793,-5.604227 l -0.0707,-3.963892 4.61334,-0.297065 4.61334,-0.297064 -0.0132,3.708332 c -0.024,6.683903 -0.80822,8.094247 -4.50109,8.094247 -2.21232,0 -3.52533,-0.546121 -3.94375,-1.640331 z m 5.55762,-2.014598 c 0.008,-0.938099 0.2768,-2.692465 0.5989,-3.898592 0.49809,-1.865188 0.20578,-2.192958 -1.95573,-2.192958 -2.04037,0 -2.54135,0.464623 -2.54135,2.356906 0,3.364584 0.96607,5.440278 2.53199,5.440278 0.7441,0 1.35889,-0.767536 1.36619,-1.705634 z"
  />
</svg>
